<svg xmlns="http://www.w3.org/2000/svg" xmlns:xlink="http://www.w3.org/1999/xlink" width="516.627" height="337.467" viewBox="0 0 516.627 337.467">
  <defs>
    <linearGradient id="linear-gradient" x1="-0.03" y1="0.503" x2="0.97" y2="0.503" gradientUnits="objectBoundingBox">
      <stop offset="0" stop-color="gray" stop-opacity="0.251"/>
      <stop offset="0.54" stop-color="gray" stop-opacity="0.122"/>
      <stop offset="1" stop-color="gray" stop-opacity="0.102"/>
    </linearGradient>
  </defs>
  <g id="Group_19" data-name="Group 19" transform="translate(-0.038 0.024)">
    <path id="Path_242" data-name="Path 242" d="M302.187,141.606c-32.628,5.513-65.211,3.15-96.554-.288s-62.609-7.927-95.251-6.574c-21,.869-44.382,5.029-59.044,17.121C37.225,163.5,35.026,179.19,35,193.358c-.037,10.657.887,21.684,8.439,30.173,5.248,5.888,13.327,10.108,19.411,15.544,21.172,18.881,14.735,48.611.841,73.888-6.519,11.859-14.492,23.521-18.931,35.659s-5.029,25.144,2.917,35.042c7.872,9.815,23.1,15.347,38.978,18.214,32.249,5.824,68.178,2.208,102.941-2.693C266.533,388.3,342.674,371.33,418.651,354.4c28.111-6.268,56.346-12.563,83.429-21.6,15.041-5.029,30.356-11.288,40.071-21.03,12.344-12.344,12.654-29.227.759-39.317-19.96-16.915-65.138-13.162-80.576-32.5-8.494-10.647-4.8-25.108,1.966-37.881,14.5-27.394,42.517-54.458,38.887-81.769-2.505-18.744-21.62-34.256-47.239-38.3-26.854-4.233-61.343,3.795-76.8,22.657C363.247,124.1,331,136.724,302.187,141.606Z" transform="translate(-34.96 -80.93)" fill="#6c63ff" opacity="0.1"/>
    <rect id="Rectangle_23" data-name="Rectangle 23" width="129.576" height="30.004" transform="translate(164.602 164.221)" fill="#565661"/>
    <rect id="Rectangle_24" data-name="Rectangle 24" width="129.576" height="30.004" transform="translate(164.602 164.221)" opacity="0.1"/>
    <path id="Path_243" data-name="Path 243" d="M379.047,427.03l.91,80.1-12.462,31.462L366.53,427.03Z" transform="translate(-198.943 -231.818)" fill="#bcbec9"/>
    <path id="Path_244" data-name="Path 244" d="M362.99,371.84l126.156.759v22.346H362.99Z" transform="translate(-197.021 -201.859)" fill="#565661"/>
    <path id="Path_245" data-name="Path 245" d="M615.33,427.03l10.794,1.522V537.377L615.33,504.091Z" transform="translate(-333.999 -231.818)" fill="#bcbec9"/>
    <rect id="Rectangle_25" data-name="Rectangle 25" width="60.799" height="129.196" transform="translate(296.226 165.423)" fill="#efeff0"/>
    <rect id="Rectangle_26" data-name="Rectangle 26" width="51.07" height="99.311" transform="translate(301.09 169.012)" fill="#565661"/>
    <rect id="Rectangle_27" data-name="Rectangle 27" width="51.07" height="99.311" transform="translate(301.09 169.012)" opacity="0.1"/>
    <rect id="Rectangle_28" data-name="Rectangle 28" width="51.07" height="22.04" transform="translate(301.09 171.046)" fill="#565661"/>
    <rect id="Rectangle_29" data-name="Rectangle 29" width="51.07" height="46.814" transform="translate(301.09 195.212)" fill="#565661"/>
    <rect id="Rectangle_30" data-name="Rectangle 30" width="51.07" height="46.814" transform="translate(301.09 244.916)" fill="#565661"/>
    <rect id="Rectangle_31" data-name="Rectangle 31" width="51.07" height="46.814" transform="translate(301.09 244.916)" opacity="0.1"/>
    <ellipse id="Ellipse_35" data-name="Ellipse 35" cx="3.292" cy="4.206" rx="3.292" ry="4.206" transform="translate(299.929 294.619)" fill="#565661"/>
    <ellipse id="Ellipse_36" data-name="Ellipse 36" cx="3.292" cy="4.206" rx="3.292" ry="4.206" transform="translate(345.577 294.821)" fill="#565661"/>
    <path id="Path_246" data-name="Path 246" d="M354.847,504.552h4.407L358.043,364.32H351.35Z" transform="translate(-190.703 -197.777)" fill="#efeff0"/>
    <path id="Path_247" data-name="Path 247" d="M638.94,361.87V502.006h4.1V362.99Z" transform="translate(-346.815 -196.447)" fill="#efeff0"/>
    <path id="Path_248" data-name="Path 248" d="M366.46,419.38v5.02H491.03v-3.648Z" transform="translate(-198.905 -227.665)" fill="#efeff0"/>
    <path id="Path_249" data-name="Path 249" d="M365.8,341.26H523.726l22.95,7.6v4.407L349.69,351.747v-4.485Z" transform="translate(-189.802 -185.259)" fill="#fff"/>
    <path id="Path_250" data-name="Path 250" d="M349.69,354.39l196.986,1.6v4.407L349.69,358.875Z" transform="translate(-189.802 -192.387)" fill="#bcbec9"/>
    <path id="Path_251" data-name="Path 251" d="M422.486,548.581l-.914-.137v-.114c-.027-.215-.059-.425-.091-.64.375.3.731.594,1.061.891Z" transform="translate(-244.754 -334.314)" fill="url(#linear-gradient)"/>
    <path id="Path_252" data-name="Path 252" d="M372.489,703.062c.594-.137,1.2-.251,1.8-.334a21.679,21.679,0,0,1,12.17,1.792c-.384,2.825-.763,5.747.05,8.476.567,1.92,1.705,3.657,1.948,5.66a3.337,3.337,0,0,1,2.629,2.323,5.051,5.051,0,0,1,.261,1.627,8.685,8.685,0,0,1-.256,2.03,2.048,2.048,0,0,1-2.194,1.829c-3.539.4-7.008-.992-10.3-2.359l-6.4-2.661c-.75-.311-1.5-.626-2.222-1.01a12.175,12.175,0,0,1-3.561-2.912,1.622,1.622,0,0,1-.425-.768c-.119-.8.823-1.285,1.422-1.829a2.852,2.852,0,0,0,.457-.558c.709-1.07.777-2.546,1.2-3.808,1.006-2.995,4.115-4.924,5.212-7.845.059-.16.114-.32.16-.485" transform="translate(-214.626 -418.203)" fill="#a26565"/>
    <path id="Path_253" data-name="Path 253" d="M391.347,737.018a8.685,8.685,0,0,1-.256,2.03,2.048,2.048,0,0,1-2.194,1.829c-3.539.4-7.008-.992-10.3-2.359l-6.4-2.661c-.75-.311-1.5-.626-2.222-1.01a12.174,12.174,0,0,1-3.561-2.912,1.623,1.623,0,0,1-.425-.768c-.119-.8.823-1.285,1.422-1.829a2.85,2.85,0,0,0,.457-.558,56.061,56.061,0,0,1,5.3,1.92,16.1,16.1,0,0,1,3.859,1.614c1.682,1.079,2.894,2.743,4.32,4.115s3.269,2.62,5.257,2.45a8.689,8.689,0,0,0,2.99-1.033Z" transform="translate(-214.626 -432.615)" opacity="0.1"/>
    <path id="Path_254" data-name="Path 254" d="M390.329,599.371a2.117,2.117,0,0,1-.777,2.286c-.6.37-1.372.32-1.966.722a3.372,3.372,0,0,0-.969,2.428c-.457,3.049-1.97,5.815-3.264,8.618s-2.386,5.861-1.911,8.906c.325,2.066,1.34,4.27.389,6.131-.233.457-.581.864-.846,1.307-1.3,2.176-.562,4.933-.613,7.466a1.476,1.476,0,0,1-.178.809,2.235,2.235,0,0,1-.722.558,3.831,3.831,0,0,0-1.559,2.94,11.233,11.233,0,0,0,.411,3.411,2.03,2.03,0,0,0,.562,1.189,2.1,2.1,0,0,0,1.23.347,27.354,27.354,0,0,1,8.348,2.03,27.066,27.066,0,0,0,5.257,1.975,1.371,1.371,0,0,0,1.079-.114,1.485,1.485,0,0,0,.457-.791,18.6,18.6,0,0,0,1.184-7.159c-.105-1.042-.384-2.062-.457-3.1-.32-4.115,2.464-7.827,3.346-11.886.4-1.829.4-3.721.681-5.568.768-5.061,3.557-9.6,4.631-14.607a15.879,15.879,0,0,1,.695-2.743c.8-1.938,2.652-3.511,2.693-5.609a2.186,2.186,0,0,0-.347-1.307,2.962,2.962,0,0,0-1.632-.914,55.72,55.72,0,0,0-7.566-1.527,14.332,14.332,0,0,0-3.557-.247,10.469,10.469,0,0,0-4.352,1.536C388.811,597.538,389.945,597.8,390.329,599.371Z" transform="translate(-221.101 -359.937)" fill="#454b69"/>
    <path id="Path_255" data-name="Path 255" d="M390.329,599.371a2.117,2.117,0,0,1-.777,2.286c-.6.37-1.372.32-1.966.722a3.372,3.372,0,0,0-.969,2.428c-.457,3.049-1.97,5.815-3.264,8.618s-2.386,5.861-1.911,8.906c.325,2.066,1.34,4.27.389,6.131-.233.457-.581.864-.846,1.307-1.3,2.176-.562,4.933-.613,7.466a1.476,1.476,0,0,1-.178.809,2.235,2.235,0,0,1-.722.558,3.831,3.831,0,0,0-1.559,2.94,11.233,11.233,0,0,0,.411,3.411,2.03,2.03,0,0,0,.562,1.189,2.1,2.1,0,0,0,1.23.347,27.354,27.354,0,0,1,8.348,2.03,27.066,27.066,0,0,0,5.257,1.975,1.371,1.371,0,0,0,1.079-.114,1.485,1.485,0,0,0,.457-.791,18.6,18.6,0,0,0,1.184-7.159c-.105-1.042-.384-2.062-.457-3.1-.32-4.115,2.464-7.827,3.346-11.886.4-1.829.4-3.721.681-5.568.768-5.061,3.557-9.6,4.631-14.607a15.879,15.879,0,0,1,.695-2.743c.8-1.938,2.652-3.511,2.693-5.609a2.186,2.186,0,0,0-.347-1.307,2.962,2.962,0,0,0-1.632-.914,55.72,55.72,0,0,0-7.566-1.527,14.332,14.332,0,0,0-3.557-.247,10.469,10.469,0,0,0-4.352,1.536C388.811,597.538,389.945,597.8,390.329,599.371Z" transform="translate(-221.101 -359.937)" opacity="0.05"/>
    <path id="Path_256" data-name="Path 256" d="M342.679,607.317h-3.9l-2.551-52.41-.178-2.981,3.314-1.166.224,3.168Z" transform="translate(-182.397 -298.982)" fill="#565661"/>
    <path id="Path_257" data-name="Path 257" d="M339.589,553.928l-3.36.978-.178-2.981,3.314-1.166Z" transform="translate(-182.397 -298.982)" opacity="0.1"/>
    <path id="Path_258" data-name="Path 258" d="M322.866,601.83l-6.432.777L286.8,535.353l-7.991-.585-14.035,4.1-2.729,80.073h-6.432l2.533-83-15.4.393-27.485,68.42H209.41l28.907-79.964,1.115-3.081,43.079-1.477,10.739,6.021.137.347Z" transform="translate(-113.653 -282.409)" fill="#565661"/>
    <path id="Path_259" data-name="Path 259" d="M362.671,607.528c-9.258,2.789-18.867,5.833-18.867,5.833s-8.764,3.058-12.476,0a5.607,5.607,0,0,0-1.55-.855,7.633,7.633,0,0,0,1.55.855L307.6,605.714l1.111-3.077,43.084-1.477,10.739,6.021Z" transform="translate(-182.937 -363.34)" opacity="0.1"/>
    <path id="Path_260" data-name="Path 260" d="M332.2,581.43l17.542-3.9s41.913,7.8,45.031,10.917c0,0-33.529,6.821-37.232,9.143S331.811,602.482,332.2,581.43Z" transform="translate(-196.289 -350.512)" fill="#fff"/>
    <path id="Path_261" data-name="Path 261" d="M301.219,442.4c-1.371,4.348-5.116,8.266-9.674,8.453a1.687,1.687,0,0,1-.965-.174,1.527,1.527,0,0,1-.352-1.829,7.909,7.909,0,0,0,.7-1.874,1.226,1.226,0,0,0-.027-.407c-.119-.544-.562-1.029-1.083-.914a1.829,1.829,0,0,0,.389-2.428,5.486,5.486,0,0,1-.558-.75c-.379-.777.21-1.65.457-2.482.507-1.829-.782-3.657-.887-5.564-.091-1.705.773-3.31.987-5,.343-2.743-1.02-5.372-1.18-8.11a17.175,17.175,0,0,1,.887-5.646,20.41,20.41,0,0,0,1.006-5.029c0-1.248-.215-2.482-.274-3.726a6.487,6.487,0,0,1,.6-3.31,2.647,2.647,0,0,1,1.5-1.285,1.9,1.9,0,0,1,2.7,1.7c.366,2.418.155,4.887.635,7.315a34.287,34.287,0,0,0,2.007,6.624c.809,1.929,1.792,3.794,2.414,5.792a31.912,31.912,0,0,1,1,5.029C302.124,433.357,302.6,438.056,301.219,442.4Z" transform="translate(-172.848 -255.325)" fill="#6c63ff"/>
    <path id="Path_262" data-name="Path 262" d="M514.464,717.6a7.091,7.091,0,0,1-5,2.944c-1.984.247-4.046-.251-5.971.293a1.829,1.829,0,0,0-1.371,1.056,11.227,11.227,0,0,0-.087,1.12c-.224,1.221-1.829,1.495-3.077,1.486l-5.148-.032a4.253,4.253,0,0,1-3.022-.8,2.249,2.249,0,0,1-.046-2.962,1.861,1.861,0,0,1,.576-.457,1.829,1.829,0,0,1-1.234-1.468,5.459,5.459,0,0,1,.1-2.016c0-1.911.457-5.111,1.8-6.606,1.65-1.861,4.512-4.265,7-4.764a5.486,5.486,0,0,1,4.745,1.349c1.179,1.1,2.039,2.816,3.657,3.008a9.081,9.081,0,0,0,2.606-.457,4.851,4.851,0,0,1,4.942,2.61,5.147,5.147,0,0,1,.457,1.431,5.943,5.943,0,0,1-.933,4.265Z" transform="translate(-281.968 -419.867)" fill="#a26565"/>
    <path id="Path_263" data-name="Path 263" d="M514.674,727.151a7.091,7.091,0,0,1-5,2.944c-1.984.247-4.046-.251-5.971.293a1.829,1.829,0,0,0-1.371,1.056,11.226,11.226,0,0,0-.087,1.12c-.224,1.221-1.829,1.495-3.077,1.486l-5.148-.032a4.253,4.253,0,0,1-3.022-.8,2.249,2.249,0,0,1-.046-2.962,53.846,53.846,0,0,0,8.855-.613c1.2-.242,2.386-.562,3.6-.731,2.633-.375,5.436-.055,7.854-1.17a8.877,8.877,0,0,0,4.316-4.851,5.943,5.943,0,0,1-.91,4.261Z" transform="translate(-282.178 -429.418)" opacity="0.1"/>
    <path id="Path_264" data-name="Path 264" d="M391.668,619.852a11.453,11.453,0,0,1-6.277,2.642,6.38,6.38,0,0,1-5.879-2.917c-1.65-2.94-.187-7.027-2.208-9.724-.631-.846-1.541-1.445-2.208-2.263a2.549,2.549,0,0,1-.457-2.917c-.718.274-1.477-.421-1.687-1.161a21.236,21.236,0,0,1-.206-2.286c-.334-1.989-2.286-3.264-3.223-5.029s-.809-4.055-.914-6.144a23.315,23.315,0,0,0-5.395-13.875,3.244,3.244,0,0,0-2.386-1.458,4.5,4.5,0,0,0-2.391-4.115,11.853,11.853,0,0,0-4.837-1.289c-16.883-1.664-34.475,4.613-50.6-.667-4.485-1.468-8.81-3.922-11.553-7.772a13.587,13.587,0,0,1-2.418-10.277v-.064c.635-3.246,2.35-4.046,5.189-5.527a62.287,62.287,0,0,1,10.236-4.293,41.546,41.546,0,0,1,21.318-1.344c3.305.741,6.492,1.966,9.8,2.684,1.3.283,2.615.485,3.936.654,2.053.256,4.115.425,6.181.663a93.509,93.509,0,0,1,19.411,4.366,25.419,25.419,0,0,1,6.707,3.145,14.858,14.858,0,0,1,5.961,9.811c.192,1.344.2,2.743.489,4.046a20.572,20.572,0,0,0,1.1,3.2,212.866,212.866,0,0,1,9.55,29.716,7.221,7.221,0,0,0,.763,2.149c.585.946,1.591,1.582,2.181,2.528,1.371,2.231.05,5.344,1.266,7.667.421.8,1.12,1.44,1.541,2.245C396.034,614.883,394.008,618.037,391.668,619.852Z" transform="translate(-172.754 -329.347)" fill="#454b69"/>
    <path id="Path_265" data-name="Path 265" d="M457.2,596.522a7.542,7.542,0,0,0,1.66-1.829,3.411,3.411,0,0,0,.5-2.364,6.762,6.762,0,0,1-1.778,5.815c-1.147,1.175-3.3,2.327-4.979,1.925C452.848,598.726,456.139,597.427,457.2,596.522Z" transform="translate(-261.652 -358.546)" opacity="0.1"/>
    <path id="Path_266" data-name="Path 266" d="M339.986,544.538a3.068,3.068,0,0,1-2.03,2.094,8.456,8.456,0,0,1-3.013.352h-.914c-12-.265-24.12-2.926-35.838-.389a25.942,25.942,0,0,0-4.142,1.221,18.7,18.7,0,0,0-4.759,2.743v-.064c.635-3.246,2.35-4.046,5.189-5.527a62.287,62.287,0,0,1,10.222-4.252,41.546,41.546,0,0,1,21.318-1.344c3.305.741,6.492,1.966,9.8,2.684,1.3.283,2.615.485,3.936.654A3.159,3.159,0,0,1,339.986,544.538Z" transform="translate(-172.997 -329.347)" opacity="0.1"/>
    <path id="Path_267" data-name="Path 267" d="M338.407,535.087a3.063,3.063,0,0,1-2.03,2.1,8.353,8.353,0,0,1-3.013.347h-.914c-12-.265-24.12-2.926-35.838-.389a26.42,26.42,0,0,0-4.142,1.216,18.836,18.836,0,0,0-4.96,2.926q-.526-1.445-1.047-2.894c-.421-1.152.914-1.408,1.17-2.441a5.563,5.563,0,0,0-.265-2.24,3.917,3.917,0,0,1-.073-.553,3.519,3.519,0,0,1,1.861-3.493,51.562,51.562,0,0,1,13.491-5.838,33.377,33.377,0,0,1,7.5-1.454,36.786,36.786,0,0,1,10.707,1.3,45.914,45.914,0,0,1,12.4,4.727,11.666,11.666,0,0,1,4.713,4.412A3.474,3.474,0,0,1,338.407,535.087Z" transform="translate(-171.419 -320.551)" fill="#a26565"/>
    <path id="Path_268" data-name="Path 268" d="M302.492,442.442c-1.372,4.348-5.116,8.266-9.674,8.453a1.687,1.687,0,0,1-.965-.174,1.527,1.527,0,0,1-.352-1.829,7.911,7.911,0,0,0,.7-1.874,1.225,1.225,0,0,0-.027-.407c2.418-3.41,4.764-6.858,5.692-10.894a5.825,5.825,0,0,0,.169-2.135,19,19,0,0,0-.768-2.364,12.327,12.327,0,0,1-.1-4.357,40.231,40.231,0,0,0-3.127-18.785,17.625,17.625,0,0,1-1.536-4.393,2.647,2.647,0,0,1,1.5-1.285,1.9,1.9,0,0,1,2.7,1.7c.366,2.418.155,4.887.635,7.315a34.288,34.288,0,0,0,2.007,6.624c.809,1.929,1.792,3.794,2.414,5.792a31.912,31.912,0,0,1,1,5.029C303.4,433.395,303.877,438.094,302.492,442.442Z" transform="translate(-174.121 -255.363)" opacity="0.1"/>
    <path id="Path_269" data-name="Path 269" d="M339.5,535.066a3.063,3.063,0,0,1-2.03,2.1,8.353,8.353,0,0,1-3.013.347h-.914a19.919,19.919,0,0,0-13.258-3.2,21.42,21.42,0,0,1-4.471.389c-3.013-.274-5.454-2.441-8.138-3.826a17.089,17.089,0,0,0-18.941,2.569l-.261.229a3.907,3.907,0,0,1-.073-.553,3.519,3.519,0,0,1,1.861-3.493,51.564,51.564,0,0,1,13.491-5.838,33.374,33.374,0,0,1,7.5-1.454,36.784,36.784,0,0,1,10.707,1.3,45.913,45.913,0,0,1,12.4,4.727,11.887,11.887,0,0,1,4.7,4.43A3.474,3.474,0,0,1,339.5,535.066Z" transform="translate(-172.511 -320.529)" opacity="0.1"/>
    <path id="Path_270" data-name="Path 270" d="M344.915,397.369l-.064.165c-1.024,2.656-2.908,4.9-4.115,7.488-1.522,3.278-1.9,6.954-2.236,10.556a54.838,54.838,0,0,0-.347,9.285c.585,7.626,4.311,14.858,5.308,22.337a24.827,24.827,0,0,1,.187,5.216,5.15,5.15,0,0,1-1.015,3.1,2.133,2.133,0,0,1-2.94.352c.352-.672.709-1.339,1.065-2.012-2.089-1.623-5.235-.457-7.676-1.472a12.358,12.358,0,0,1-2.834-2.016,19.878,19.878,0,0,0-14.808-4.325,21.123,21.123,0,0,1-4.471.393c-3.013-.279-5.454-2.441-8.138-3.827a17.1,17.1,0,0,0-18.941,2.565c-.64.594-1.5,1.289-2.286.914a1.9,1.9,0,0,1-.709-.773c-2.994-5.116-.791-11.713,2.409-16.7s7.438-9.578,8.755-15.352a5.729,5.729,0,0,0,.169-2.135,18.991,18.991,0,0,0-.768-2.364,12.326,12.326,0,0,1-.1-4.357,40.232,40.232,0,0,0-3.118-18.79,13.826,13.826,0,0,1-1.6-5.285c0-2.917,2.089-5.335,3.817-7.68,1.989-2.7,3.657-5.683,6.176-7.9,2.386-2.108,5.843-3.4,8.8-2.327a54.834,54.834,0,0,1,15.343-1.495,11.753,11.753,0,0,1,5.189,1.134c1.673.914,2.876,2.542,4.521,3.516a24.639,24.639,0,0,0,3.9,1.559,16.1,16.1,0,0,1,8.394,7.507c1.829,3.543,2.286,7.616,2.688,11.585C345.847,389.972,346.213,393.854,344.915,397.369Z" transform="translate(-167.672 -232.911)" fill="#6c63ff"/>
    <path id="Path_271" data-name="Path 271" d="M395.985,440.315c.585,7.626,4.311,14.858,5.308,22.337-1.993-1.687-4.768-3.383-5.139-5.344-.411-2.121-1.728-4.9-1.948-7.045s1.285-4.764-.293-6.236c-.768-.718,1.276-.517.526-1.253-1.687-1.641-2.1-4.169-2.208-6.515-.178-4.151.347-8.348-.416-12.43a62.572,62.572,0,0,0-2.176-7.365c-.887-2.848-1.527-5.765-2.167-8.686a60.855,60.855,0,0,1-1.372-7.891,12.944,12.944,0,0,1,.914-6.794,6.267,6.267,0,0,1,5.395-3.744c7.735.1,6.4,10.588,8.1,15.434a39.119,39.119,0,0,1,1.97,5.806,15.39,15.39,0,0,1,.219,2.386c-1.024,2.656-2.908,4.9-4.115,7.488-1.522,3.278-1.9,6.954-2.236,10.556A53.155,53.155,0,0,0,395.985,440.315Z" transform="translate(-225.504 -248.362)" opacity="0.1"/>
    <path id="Path_272" data-name="Path 272" d="M401.637,404.475a39.12,39.12,0,0,1,1.97,5.806c.617,3.369-.338,6.949.7,10.213a17.8,17.8,0,0,1,.677,2.135,18.656,18.656,0,0,1-.027,3.154,18.026,18.026,0,0,0,1.01,4.979,88.98,88.98,0,0,1,3.177,16.988,21.3,21.3,0,0,0,.727,4.572,15.182,15.182,0,0,1,.494,1.545,7.992,7.992,0,0,1,.087,2.117,40.264,40.264,0,0,0-.123,6.72,9.321,9.321,0,0,0,2.743,5.989,8.754,8.754,0,0,1-4.549.169c-2.057-.672-3.292-2.743-4.339-4.627-1.326-2.4-6.364-4.572-6.885-7.274-.407-2.117-1.724-4.9-1.943-7.045s1.28-4.759-.3-6.231c-.763-.718,1.28-.521.526-1.253-1.682-1.641-2.1-4.169-2.2-6.519-.178-4.147.343-8.343-.416-12.426a62.9,62.9,0,0,0-2.176-7.37c-.887-2.844-1.527-5.76-2.167-8.686a60.223,60.223,0,0,1-1.371-7.891,12.915,12.915,0,0,1,.914-6.8A6.286,6.286,0,0,1,393.559,389C401.262,389.137,399.936,399.629,401.637,404.475Z" transform="translate(-226.127 -248.172)" fill="#6c63ff"/>
    <path id="Path_273" data-name="Path 273" d="M367.97,423.1c.722.846,1.65,1.774,2.743,1.609a.594.594,0,0,1-.809.192,1.737,1.737,0,0,1-.608-.7l-1.564-2.638c-.206-.343-1.623-2.341-1.97-1.189C365.625,420.869,367.618,422.693,367.97,423.1Z" transform="translate(-214.505 -265.014)" opacity="0.1"/>
    <path id="Path_274" data-name="Path 274" d="M358.652,435.672a3.484,3.484,0,0,0-1.02-2.286,5.714,5.714,0,0,0-1.888-1.138,13.676,13.676,0,0,0-5.6-1.18c.677.987,2.848,1.577,3.936,2.135Q356.39,434.4,358.652,435.672Z" transform="translate(-206.029 -271.003)" opacity="0.1"/>
    <path id="Path_275" data-name="Path 275" d="M360.272,474.03c-.315,2.341-2.231,4.115-4.169,5.486s-4.115,2.551-5.381,4.535c-.878,1.371-1.271,2.962-2.016,4.393a50.928,50.928,0,0,1-3.036,4.384,7.154,7.154,0,0,0-1.449,5.006.59.59,0,0,0,.21.421.6.6,0,0,0,.581-.064c1.993-1.042,2.78-3.424,3.616-5.486a63.378,63.378,0,0,1,2.962-6.09,5.609,5.609,0,0,1,1.957-2.418,17.165,17.165,0,0,1,1.929-.672,6.487,6.487,0,0,0,2.382-1.87A15.7,15.7,0,0,0,361.516,471c-.027-.818-.073-4.759-1.3-3.543S360.483,472.439,360.272,474.03Z" transform="translate(-202.78 -290.635)" opacity="0.1"/>
    <path id="Path_276" data-name="Path 276" d="M332.432,281.809c3.932,1.714,7.315,5.486,7.191,9.761-.105,4.489-3.863,8.718-2.569,13.02.75,2.5,3.008,4.169,4.8,6.067,6.807,7.2,6.794,19.782-.037,26.973-2.615,2.743-5.975,4.7-8.741,7.315-9.751,9.189-10.167,25.085-4.947,37.424a60.867,60.867,0,0,1-12.17,1.372c-1.916,0-4.261-.325-4.956-2.112-.64-1.65.457-3.881-.8-5.1a4.127,4.127,0,0,0-2.286-.782c-5.148-.832-9.372-4.942-11.3-9.783s-1.829-10.291-.722-15.384c.786-3.68,2.016-7.731.192-11.022-2.286-4.142-8.86-5.888-8.759-10.625.082-3.881,4.659-5.769,7.255-8.654,4.791-5.312,2.51-13.555,2.5-20.714,0-6.3,2.2-12.8,6.894-17C310.945,276.268,324.381,278.312,332.432,281.809Z" transform="translate(-171.927 -188.189)" fill="#a26565"/>
    <g id="Group_18" data-name="Group 18" transform="translate(115.409 102.416)" opacity="0.1">
      <path id="Path_277" data-name="Path 277" d="M296.849,391.124c-2.007-3.621-7.278-5.413-8.5-8.974a5.07,5.07,0,0,0-.987,2.862c-.1,4.736,6.464,6.483,8.759,10.629a8.636,8.636,0,0,1,.914,4.764C297.755,397.223,298.39,393.9,296.849,391.124Z" transform="translate(-287.357 -346.87)"/>
      <path id="Path_278" data-name="Path 278" d="M397.219,313.1c.823-2.4,2.016-4.823,2.076-7.315a6.859,6.859,0,0,0-.023-.809C398.352,307.732,396.944,310.4,397.219,313.1Z" transform="translate(-346.974 -304.98)"/>
      <path id="Path_279" data-name="Path 279" d="M309.216,328.573c1.573-4.969.215-11.132.21-16.646,0-.667.027-1.34.078-2.007a26.4,26.4,0,0,0-.814,6.519C308.7,320.375,309.389,324.645,309.216,328.573Z" transform="translate(-298.937 -307.662)"/>
      <path id="Path_280" data-name="Path 280" d="M388.181,388.279c-2.615,2.743-5.975,4.7-8.741,7.315-4.937,4.649-7.475,11.018-8.11,17.77a26.135,26.135,0,0,1,7.379-13.258c2.743-2.606,6.126-4.549,8.741-7.315a19.425,19.425,0,0,0,5.1-12.371A18.566,18.566,0,0,1,388.181,388.279Z" transform="translate(-332.94 -345.931)"/>
      <path id="Path_281" data-name="Path 281" d="M325.988,463.883c-1.916,0-4.261-.329-4.956-2.117-.64-1.646.457-3.877-.8-5.1a4.139,4.139,0,0,0-2.286-.782c-5.143-.827-9.367-4.942-11.3-9.779a24.453,24.453,0,0,1-1.372-11.324c-.037.151-.069.3-.1.457-1.088,5.093-1.2,10.547.722,15.388s6.154,8.951,11.3,9.779a4.076,4.076,0,0,1,2.286.782c1.276,1.225.165,3.456.8,5.1.695,1.788,3.04,2.14,4.956,2.117a60.91,60.91,0,0,0,12.17-1.371,40.872,40.872,0,0,1-1.477-4.083A60.686,60.686,0,0,1,325.988,463.883Z" transform="translate(-296.605 -375.439)"/>
    </g>
    <path id="Path_282" data-name="Path 282" d="M384.365,451.03c1.129.85,2.354-2.391,1.655-3.2A15.531,15.531,0,0,0,384.365,451.03Z" transform="translate(-224.6 -280.107)" opacity="0.1"/>
    <path id="Path_283" data-name="Path 283" d="M394.91,577.035a7.413,7.413,0,0,0,3.612-2.012c.718-.882,1.307-4.384-.21-2.706C397.022,573.757,396.414,575.654,394.91,577.035Z" transform="translate(-230.331 -347.439)" opacity="0.1"/>
    <path id="Path_284" data-name="Path 284" d="M422.5,569.261a5.252,5.252,0,0,1-1.221,2.976c-.142.146-.457.238-.5.041a11.56,11.56,0,0,0,2.359-1.664c1.545-1.531,1.756-5.3-.6-6.3A35.83,35.83,0,0,1,422.5,569.261Z" transform="translate(-244.374 -343.336)" opacity="0.1"/>
    <path id="Path_285" data-name="Path 285" d="M437.649,554.8s-12.975-5.1-17.665-4.572,5.312,7.918,5.312,7.918l5.98,4.032s3.657-1.371,3.9-1.477S437.649,554.8,437.649,554.8Z" transform="translate(-243.262 -335.67)" fill="#454b69"/>
    <path id="Path_286" data-name="Path 286" d="M264.84,438.1s9.747-5.651,22.612,1.371,15.009,48.346,15.009,48.346-5.262,42.1,15.027,32.733c0,0,37.031-11.5,40.738-8.965,0,0,3.511,0-3.506,1.559s-34.128,10.149-34.128,10.149-8.764,3.063-12.476,0-14.232.393-15.6-20.664a366.189,366.189,0,0,0-4.873-39.573l-3.616-10.721Z" transform="translate(-159.725 -273.658)" fill="#565661"/>
    <path id="Path_287" data-name="Path 287" d="M257.834,504.139s4.288-42.691-2.743-58.093c-6.117-13.423,17.537-7.146,23.709-5.317a4.494,4.494,0,0,1,2.368,1.692c3.657,5.143,16.778,25.757,12.91,53.338,0,0-1.559,24.564,8.188,28.459l-30.031-9.674c-2.437-.786-4.91-1.44-7.406-2.007C261.647,511.815,256.462,509.762,257.834,504.139Z" transform="translate(-153.89 -274.588)" fill="#fff"/>
    <path id="Path_288" data-name="Path 288" d="M694.53,609.317h3.9l2.556-52.41.174-2.981-3.314-1.166-.219,3.168Z" transform="translate(-376.991 -300.068)" fill="#565661"/>
    <path id="Path_289" data-name="Path 289" d="M701.3,555.928l3.36.978.174-2.981-3.315-1.166Z" transform="translate(-380.666 -300.068)" opacity="0.1"/>
    <path id="Path_290" data-name="Path 290" d="M629.07,687.969a8.787,8.787,0,0,1-.549,2.094,3.7,3.7,0,0,1-1.669,2.085,4.408,4.408,0,0,1-1.687.334c-2.153.128-4.43.1-6.281-1a11.427,11.427,0,0,1-2.153-1.8,98.245,98.245,0,0,1-11.3-13.441,3.51,3.51,0,0,1-.891-2.743,42.612,42.612,0,0,0,12.238-5.6,5.906,5.906,0,0,1,1.719-.914,9.341,9.341,0,0,1,3.228-.119c1.038.169,1.083.2,1.481,1.372.658,1.98.549,4.115,1.289,6.094a18.877,18.877,0,0,0,1.71,3.127C628.115,680.654,629.582,684.426,629.07,687.969Z" transform="translate(-344.091 -398.959)" fill="#a26565"/>
    <path id="Path_291" data-name="Path 291" d="M629.07,694.288a8.786,8.786,0,0,1-.549,2.094,3.7,3.7,0,0,1-1.669,2.085,4.407,4.407,0,0,1-1.687.334c-2.153.128-4.43.1-6.281-1a11.43,11.43,0,0,1-2.153-1.8,98.245,98.245,0,0,1-11.3-13.441,3.51,3.51,0,0,1-.891-2.743,42.425,42.425,0,0,0,4.188-1.4l.068.05a15.363,15.363,0,0,1,3.415,3.845l3.2,4.5a13.261,13.261,0,0,0,2.007,2.423,13.432,13.432,0,0,0,3.1,1.865c1.5.727,3.008,1.454,4.572,2.039C626.1,693.552,627.813,693.712,629.07,694.288Z" transform="translate(-344.091 -405.278)" opacity="0.1"/>
    <path id="Path_292" data-name="Path 292" d="M647.771,600.48a13.767,13.767,0,0,1-1.143,2.181,93.336,93.336,0,0,0-9.747,22.808c-.631-.142-.987.718-.983,1.372s0,1.477-.6,1.714c-.178.069-.379.069-.553.146-.384.174-.494.663-.549,1.083l-.539,3.959a4.912,4.912,0,0,0,2.089,5.9l8.924,7.04c.366.288.818.594,1.257.434,1-.366.114-2.158.914-2.885.53-.5,1.372-.123,2.108-.183a2.385,2.385,0,0,0,1.929-1.884,8.957,8.957,0,0,0,.05-2.862,2.6,2.6,0,0,1,.146-1.285,3.118,3.118,0,0,1,1.093-1.047,11.731,11.731,0,0,0,4.8-9.893,5.486,5.486,0,0,1,.064-1.751,4.614,4.614,0,0,1,.827-1.445,133.812,133.812,0,0,0,8.627-13.893c1.545-2.743,3.118-5.527,3.657-8.618a.8.8,0,0,0-.658-1.1,31.077,31.077,0,0,0-4.087-.978c-4.2-.85-8.256-2.162-12.344-3.424S649,597.179,647.771,600.48Z" transform="translate(-359.839 -360.291)" fill="#454b69"/>
    <path id="Path_293" data-name="Path 293" d="M587.5,603.83l6.437.777,29.629-67.254,7.991-.585,14.04,4.1,2.725,80.073h6.432l-2.533-83,15.4.393,27.485,68.42h5.847l-28.907-79.964-1.111-3.081-43.084-1.477-10.739,6.021-.137.347Z" transform="translate(-318.892 -283.495)" fill="#565661"/>
    <path id="Path_294" data-name="Path 294" d="M686.94,609.528c9.258,2.789,18.867,5.833,18.867,5.833s8.764,3.058,12.476,0a5.607,5.607,0,0,1,1.55-.855,7.636,7.636,0,0,1-1.55.855l23.727-7.648-1.1-3.077L697.83,603.16l-10.739,6.021Z" transform="translate(-388.854 -364.425)" opacity="0.1"/>
    <path id="Path_295" data-name="Path 295" d="M708.493,583.43l-17.542-3.9s-41.913,7.8-45.031,10.917c0,0,33.529,6.821,37.232,9.143S708.886,604.482,708.493,583.43Z" transform="translate(-366.587 -351.598)" fill="#fff"/>
    <path id="Path_296" data-name="Path 296" d="M601.679,703.008c-1.056,2.012-3.657,2.578-5.943,2.61a25.1,25.1,0,0,1-9.29-1.659A54.055,54.055,0,0,0,581.385,702c-2.6-.713-5.486-.654-7.772-2.085a9.142,9.142,0,0,1-2.921-3.168c-.133-.224-.261-.457-.379-.695a9.791,9.791,0,0,1-.992-6.894c.608-2.295,2.816-4.823,5.376-4.787,3.04.046,6.666,1.486,9.6,2.231a38.408,38.408,0,0,1,10.547,3.9,15.775,15.775,0,0,1,6.373,6.816,11.561,11.561,0,0,1,.6,1.7A5.332,5.332,0,0,1,601.679,703.008Z" transform="translate(-324.865 -408.508)" fill="#a26565"/>
    <path id="Path_297" data-name="Path 297" d="M603.166,716.878c-1.056,2.012-3.657,2.578-5.943,2.61a25.1,25.1,0,0,1-9.29-1.66,54.043,54.043,0,0,0-5.061-1.961c-2.6-.713-5.486-.654-7.772-2.085a9.144,9.144,0,0,1-2.921-3.168c-.133-.224-.261-.457-.379-.695.457.037.878.082,1.106.105a45.66,45.66,0,0,1,8.165,2.066,45.867,45.867,0,0,0,11.429,1.783,15.411,15.411,0,0,0,8-1.463,20.97,20.97,0,0,1,2.222-1.221,11.558,11.558,0,0,1,.6,1.7A5.421,5.421,0,0,1,603.166,716.878Z" transform="translate(-326.352 -422.378)" opacity="0.1"/>
    <path id="Path_298" data-name="Path 298" d="M609.494,532.905a147.334,147.334,0,0,0-18.022-1.449l-7.37-.293a3.342,3.342,0,0,0-1.55.187,10.1,10.1,0,0,0-1.212.914,5.012,5.012,0,0,1-2.578.608,128.354,128.354,0,0,0-18.817,2.441c-3.2.654-6.524,1.509-8.929,3.717-2.542,2.336-3.657,5.9-3.744,9.345a33.853,33.853,0,0,0,1.774,10.145,46.218,46.218,0,0,1,2,12.28,22.975,22.975,0,0,0,.133,3.461,16.557,16.557,0,0,0,.965,3.2l3.365,8.983c.3.786.59,1.568.914,2.336s.635,1.372.914,2.094c.411.987.736,2.012,1.061,3.031l2.24,7.036.293.914a26.433,26.433,0,0,0,3.164,7.287,8.924,8.924,0,0,0,6.547,4.064,20.057,20.057,0,0,1,2.569.069,10.392,10.392,0,0,1,2.108.763,16.077,16.077,0,0,0,6.3,1.23c1.989,0,4.2-.553,5.276-2.226a7.757,7.757,0,0,0,.914-3.118c.288-2.167.567-4.43-.169-6.487-.457-1.23-1.225-2.286-1.756-3.5a35.546,35.546,0,0,1-1.463-5.216,19.923,19.923,0,0,0-6.08-9.674,95.339,95.339,0,0,1-2.286-12.517,11.014,11.014,0,0,0-.553-2.743c-.535-1.371-1.618-2.482-2.071-3.881-.425-1.3-.3-2.8-1.07-3.918,6.432,1.769,12.8,1.372,19.48,1.266a53.214,53.214,0,0,0,6.4-.366,20.118,20.118,0,0,1,3-.32c2.066,0,4,.914,5.9,1.719a48.6,48.6,0,0,0,16.838,4.329c6.012.251,11.955-1.161,17.83-2.56,2.583-.617,5.267-1.285,7.315-2.981s3.2-4.755,1.938-7.082c-.96-1.751-2.949-2.61-4.8-3.342-5.139-2.03-10.3-4.009-15.256-6.464C623.433,542.506,617.778,534.277,609.494,532.905Z" transform="translate(-313.035 -325.331)" fill="#454b69"/>
    <path id="Path_299" data-name="Path 299" d="M654.923,477.984a44.939,44.939,0,0,1-2.816,4.288,10.867,10.867,0,0,0-1.372,8.069,9.18,9.18,0,0,0,5.143,6.259,12.907,12.907,0,0,0,3.566.859,7.875,7.875,0,0,0,4.745-.539,6.931,6.931,0,0,0,2.528-2.642,26.8,26.8,0,0,0,2.569-6.684,43.7,43.7,0,0,0,2.048-13.052c-.05-1.522-.352-3.237-1.614-4.115a5.426,5.426,0,0,0-2.121-.695l-6.03-1.079c-1.166-.21-3.2-1.065-4.211-.224s-1.088,3.328-1.262,4.494A18.976,18.976,0,0,1,654.923,477.984Z" transform="translate(-369.061 -291.092)" fill="#a1616a"/>
    <path id="Path_300" data-name="Path 300" d="M804.636,444.931l-1.577,13.221a60.793,60.793,0,0,0-.562,7.114c0,1.326.041,2.8-.837,3.79a3.456,3.456,0,0,1-1.573.946,8.431,8.431,0,0,1-5.833-.754,4.824,4.824,0,0,1-2.647-2.185,5.43,5.43,0,0,1-.343-2.318c0-7.886.745-16.111,4.864-22.831a4.979,4.979,0,0,1,1.449-1.673,4.761,4.761,0,0,1,3.932-.128c.8.242,2.944.512,3.452,1.221S804.746,444.021,804.636,444.931Z" transform="translate(-445.476 -275.723)" fill="#a1616a"/>
    <circle id="Ellipse_37" data-name="Ellipse 37" cx="16.458" cy="16.458" r="16.458" transform="translate(300.857 88.481)" fill="#a1616a"/>
    <path id="Path_301" data-name="Path 301" d="M713,340.124a8.489,8.489,0,0,1-1.019,3.657q12.6-1.92,25.144-4.279a11.809,11.809,0,0,1-5.833-6.858,19.365,19.365,0,0,1-.741-4.887,56.52,56.52,0,0,1,.151-7.868,39.922,39.922,0,0,0-8.485,2.345,83.651,83.651,0,0,1-8.544,2.391c-1.394.311-2.8.576-4.206.823-1.646.293-2.437.288-1.294,1.733C711.238,331.04,713.428,334.963,713,340.124Z" transform="translate(-400.086 -210.658)" fill="#a1616a"/>
    <path id="Path_302" data-name="Path 302" d="M692.313,354.457c-2.172.325-4.448.69-6.181,2.034a23.332,23.332,0,0,0-1.879,1.806c-3.443,3.342-8.3,4.686-12.481,7.045A5.486,5.486,0,0,0,670,366.736c-.457.635-.69,1.445-1.17,2.076-.558.732-1.44,1.189-1.874,2a5.639,5.639,0,0,0-.384,2.528,23.53,23.53,0,0,1-1.371,5.486c-2.537,8.645-1.148,18.287-4.988,26.452a3.717,3.717,0,0,0,2.021,2.112,11.474,11.474,0,0,0,3,.645l8.508,1.056a6.717,6.717,0,0,0,3.616-.215,42.486,42.486,0,0,0-2.144,8.654,43.105,43.105,0,0,1-.96,5.358,17.964,17.964,0,0,1-7.6,9.665,2.811,2.811,0,0,0-1.074.992c-.457.914.219,1.938.7,2.834,1.394,2.6,1.2,5.715,1.184,8.659s.279,6.176,2.336,8.288a12.5,12.5,0,0,0,4.5,2.569l13.308,5.317a46.373,46.373,0,0,0,6.775,2.286,40.456,40.456,0,0,0,10.748.613q3.566-.151,7.123-.457a5.541,5.541,0,0,0,2.693-.709,5.028,5.028,0,0,0,1.577-2.14c1.852-4.028,2.473-8.727,5.344-12.1,1.97-2.318,5.029-4.169,5.253-7.2.105-1.509-.567-2.976-.576-4.489,0-1.861.974-3.63.914-5.486-.123-3.022-2.972-5.326-3.424-8.316-1.152-7.58,2.7-15.151,5.061-22.442.425-1.3.974-2.743,2.226-3.3s3.017-.265,3.465-1.5a26.642,26.642,0,0,0,1.253-10.03c-.082-1.906-.759-3.772-.681-5.683.055-1.344.485-2.652.6-3.991a16.946,16.946,0,0,0-.914-5.993,9.389,9.389,0,0,0-.713-2.021,9.6,9.6,0,0,0-1.189-1.632l-2.226-2.647a10.211,10.211,0,0,0-3.657-3.15c-.489-1.211-2.053-2.048-3.173-2.716a32.525,32.525,0,0,0-3.493-1.714l-12.59-5.559a5.157,5.157,0,0,0-1.495-.485,4.841,4.841,0,0,0-2.222.457A55.076,55.076,0,0,1,692.313,354.457Z" transform="translate(-374.344 -227.189)" fill="#6c63ff"/>
    <path id="Path_303" data-name="Path 303" d="M698.351,284.366c-.485-1.705-1.724-3.177-1.911-4.942-.169-1.568.521-3.086.914-4.613s.379-3.392-.832-4.407c-.2-.174-.457-.329-.53-.585-.146-.457.315-.873.457-1.335.261-.914-.869-1.925-.457-2.8.233-.48.818-.649,1.33-.8,1.957-.581,3.941-1.87,4.366-3.868,1.532.64,3.164-.562,4.339-1.728s2.62-2.5,4.238-2.144l-.361.736a11.7,11.7,0,0,1,7.74-.087h-.768A10.615,10.615,0,0,1,723,259.862c-.2,0-.215.293-.137.457.64,1.495,2.286,2.286,3.872,2.656a5.494,5.494,0,0,1,2.693,1.079c.7.686.713,2.117-.21,2.446a24.049,24.049,0,0,1,5.308,2.88c.457.334.974.786.914,1.372a4.467,4.467,0,0,1-.283.855,2.959,2.959,0,0,0,.1,1.463l.507,2.094c.558,2.327,1,5.129-.7,6.816a6.259,6.259,0,0,1-1.1,7.388,3.045,3.045,0,0,1-2.286,3.936,2.051,2.051,0,0,1-.841,2.679,4.888,4.888,0,0,1-3.036.457,12.956,12.956,0,0,0-3.113-.174c-1.5.233-2.976,1.257-4.425.8a9.933,9.933,0,0,1-1.55-.832,12.576,12.576,0,0,0-3.319-.914,15.333,15.333,0,0,1-5.363-2.286,6.286,6.286,0,0,1-2.464-2.743c-1.006-2.542.686-5.875-1.093-7.946a3.141,3.141,0,0,0-4.275-.192c-.581.517-.658,1.6-1.262,1.993A7.978,7.978,0,0,1,698.351,284.366Z" transform="translate(-393.718 -176.565)" fill="#464353"/>
    <path id="Path_304" data-name="Path 304" d="M649.657,598.522a7.543,7.543,0,0,1-1.66-1.829,3.411,3.411,0,0,1-.5-2.364,6.762,6.762,0,0,0,1.778,5.815c1.147,1.175,3.3,2.327,4.979,1.925C654.014,600.726,650.722,599.427,649.657,598.522Z" transform="translate(-367.389 -359.632)" opacity="0.1"/>
    <path id="Path_305" data-name="Path 305" d="M738.233,440.1s-9.747-5.651-22.612,1.371-15.009,48.346-15.009,48.346,5.262,42.1-15.027,32.733c0,0-37.031-11.5-40.738-8.965,0,0-3.511,0,3.507,1.559s34.128,10.149,34.128,10.149,8.764,3.063,12.476,0,14.232.393,15.6-20.664a366.191,366.191,0,0,1,4.873-39.573l3.616-10.721Z" transform="translate(-365.528 -274.743)" fill="#565661"/>
    <path id="Path_306" data-name="Path 306" d="M799.962,506.139s-4.288-42.691,2.743-58.093c6.117-13.422-17.537-7.146-23.709-5.317a4.494,4.494,0,0,0-2.368,1.692c-3.657,5.143-16.778,25.757-12.911,53.338,0,0,1.559,24.564-8.188,28.459l30.031-9.674c2.437-.786,4.91-1.44,7.406-2.007C796.15,513.815,801.334,511.762,799.962,506.139Z" transform="translate(-426.086 -275.674)" fill="#fff"/>
    <ellipse id="Ellipse_38" data-name="Ellipse 38" cx="44.547" cy="7.155" rx="44.547" ry="7.155" transform="translate(408.059 299.168)" fill="#6c63ff" opacity="0.1"/>
    <rect id="Rectangle_32" data-name="Rectangle 32" width="2.866" height="64.539" transform="translate(451.17 169.259)" fill="#535461"/>
    <path id="Path_307" data-name="Path 307" d="M1021.273,586.73l-.178,2.908-.256,4.115-.105,1.71-.251,4.115-.11,1.71-.256,4.115-2.889,46.663a7.909,7.909,0,0,1-7.891,7.388H994.309a7.9,7.9,0,0,1-7.882-7.415l-2.9-46.668-.251-4.115-.105-1.71-.261-4.115-.105-1.71-.251-4.115-.183-2.908a4.115,4.115,0,0,1,4.087-4.348h30.731a4.115,4.115,0,0,1,4.082,4.38Z" transform="translate(-549.219 -353.129)" fill="#565661"/>
    <path id="Path_308" data-name="Path 308" d="M986.359,517.36l-.256,4.1H948.076l-.256-4.1Z" transform="translate(-514.484 -280.852)" fill="#9d9cb5"/>
    <path id="Path_309" data-name="Path 309" d="M986.427,530.08l-.251,4.105h-37.31l-.256-4.105Z" transform="translate(-514.913 -287.756)" fill="#9d9cb5"/>
    <path id="Path_310" data-name="Path 310" d="M986.495,542.8l-.256,4.1H949.656l-.256-4.1Z" transform="translate(-515.342 -294.661)" fill="#9d9cb5"/>
    <path id="Path_311" data-name="Path 311" d="M929.491,488.944c16.7,12.078,23.649,30.969,23.649,30.969s-20.116-.69-36.816-12.769S892.68,476.18,892.68,476.18,912.8,476.87,929.491,488.944Z" transform="translate(-500.535 -295.497)" fill="#6c63ff"/>
    <path id="Path_312" data-name="Path 312" d="M892.68,476.18s20.879,11.589,27.581,21.185,32.88,22.548,32.88,22.548" transform="translate(-500.535 -295.497)" fill="none" stroke="#535461" stroke-miterlimit="10" stroke-width="2"/>
    <path id="Path_313" data-name="Path 313" d="M973.01,442.629c9.089,6.57,12.874,16.856,12.874,16.856s-10.972-.379-20.038-6.949S953,435.68,953,435.68,963.926,436.055,973.01,442.629Z" transform="translate(-533.279 -273.512)" fill="#6c63ff"/>
    <path id="Path_314" data-name="Path 314" d="M953,435.68s11.365,6.309,15.009,11.53,17.9,12.275,17.9,12.275" transform="translate(-533.279 -273.512)" fill="none" stroke="#535461" stroke-miterlimit="10" stroke-width="2"/>
    <path id="Path_315" data-name="Path 315" d="M1038.8,468.687c-10.437,11.47-12.645,26.461-12.645,26.461s14.716-3.612,25.144-15.087S1063.94,453.6,1063.94,453.6,1049.233,457.216,1038.8,468.687Z" transform="translate(-572.987 -283.239)" fill="#6c63ff"/>
    <path id="Path_316" data-name="Path 316" d="M1063.949,453.61s-13.6,11.758-17.052,19.859-20.746,21.684-20.746,21.684" transform="translate(-572.987 -283.245)" fill="none" stroke="#535461" stroke-miterlimit="10" stroke-width="2"/>
    <path id="Path_317" data-name="Path 317" d="M555.239,404.156V405.2H524.33v-.846a10.386,10.386,0,0,0,2.386-1.271,10.154,10.154,0,0,0,4.243-8.256,10.02,10.02,0,0,0-.315-2.5,10.163,10.163,0,0,0-5.614-6.734h30a10.163,10.163,0,0,0-5.614,6.734,10.021,10.021,0,0,0-.311,2.5,10.149,10.149,0,0,0,4.238,8.256A10.457,10.457,0,0,0,555.239,404.156Z" transform="translate(-300.584 -246.322)" fill="#dfe6f5"/>
    <path id="Path_318" data-name="Path 318" d="M555.859,385.59a10.163,10.163,0,0,0-5.614,6.734H531.474a10.163,10.163,0,0,0-5.614-6.734Z" transform="translate(-301.415 -246.322)" opacity="0.1"/>
    <path id="Path_319" data-name="Path 319" d="M446.92,373.94v5.87a5.6,5.6,0,0,0,5.294,5.865H543.15a5.606,5.606,0,0,0,5.3-5.865v-5.87Z" transform="translate(-258.564 -239.998)" fill="#dfe6f5"/>
    <path id="Path_320" data-name="Path 320" d="M555.239,424.924v1.042H524.33v-.846a10.386,10.386,0,0,0,2.386-1.271h26.626a10.457,10.457,0,0,0,1.9,1.074Z" transform="translate(-300.584 -267.09)" opacity="0.1"/>
    <rect id="Rectangle_33" data-name="Rectangle 33" width="51.336" height="3.095" rx="1.548" transform="translate(213.533 157.084)" fill="#dfe6f5"/>
    <path id="Path_321" data-name="Path 321" d="M548.448,227.024a5.294,5.294,0,0,0-5.3-5.294H452.214a5.289,5.289,0,0,0-5.294,5.294v65.435H548.448Z" transform="translate(-258.564 -157.374)" fill="#474157"/>
    <path id="Path_322" data-name="Path 322" d="M548.967,235.386v56.232a2.606,2.606,0,0,1-2.606,2.61H455.586a2.606,2.606,0,0,1-2.606-2.61V235.386a2.57,2.57,0,0,1,.347-1.3,2.606,2.606,0,0,1,2.258-1.3h90.776A2.606,2.606,0,0,1,548.967,235.386Z" transform="translate(-261.853 -163.372)" fill="#4c4c78"/>
    <circle id="Ellipse_39" data-name="Ellipse 39" cx="1.221" cy="1.221" r="1.221" transform="translate(237.9 65.659)" fill="#fff"/>
    <circle id="Ellipse_40" data-name="Ellipse 40" cx="3.013" cy="3.013" r="3.013" transform="translate(236.108 137.042)" fill="#fff"/>
    <path id="Path_323" data-name="Path 323" d="M548.978,235.386H453a2.606,2.606,0,0,1,2.606-2.606h90.767a2.606,2.606,0,0,1,2.606,2.606Z" transform="translate(-261.864 -163.372)" fill="#c8cad7"/>
    <circle id="Ellipse_41" data-name="Ellipse 41" cx="0.654" cy="0.654" r="0.654" transform="translate(193.079 70.057)" fill="#ededf4"/>
    <circle id="Ellipse_42" data-name="Ellipse 42" cx="0.654" cy="0.654" r="0.654" transform="translate(195.036 70.057)" fill="#ededf4"/>
    <circle id="Ellipse_43" data-name="Ellipse 43" cx="0.654" cy="0.654" r="0.654" transform="translate(196.992 70.057)" fill="#ededf4"/>
  </g>
</svg>
