<svg xmlns="http://www.w3.org/2000/svg" xmlns:xlink="http://www.w3.org/1999/xlink" width="616.293" height="465.706" viewBox="0 0 616.293 465.706">
  <defs>
    <linearGradient id="linear-gradient" x1="0.5" y1="1" x2="0.5" gradientUnits="objectBoundingBox">
      <stop offset="0" stop-color="gray" stop-opacity="0.251"/>
      <stop offset="0.54" stop-color="gray" stop-opacity="0.122"/>
      <stop offset="1" stop-color="gray" stop-opacity="0.102"/>
    </linearGradient>
    <linearGradient id="linear-gradient-2" x1="0.5" x2="0.5" y2="0" xlink:href="#linear-gradient"/>
    <linearGradient id="linear-gradient-3" x1="0.5" x2="0.5" y2="0" xlink:href="#linear-gradient"/>
    <linearGradient id="linear-gradient-4" x1="1.096" x2="1.096" y2="0" xlink:href="#linear-gradient"/>
    <linearGradient id="linear-gradient-5" x1="0.5" x2="0.5" y2="0" xlink:href="#linear-gradient"/>
  </defs>
  <g id="Group_15" data-name="Group 15" transform="translate(0.013 -0.004)">
    <path id="Path_1" data-name="Path 1" d="M43.44,426.65c9.751,38,30.4,70.849,63.022,86.77,67.832,33.093,220.717,16.024,334.838-3.564,59.046-10.135,110.908-38.082,148.606-77.464Z" transform="translate(-36.794 -206.44)" fill="#6c63ff" opacity="0.1"/>
    <path id="Path_2" data-name="Path 2" d="M655.235,61.485H592.619a4.956,4.956,0,1,1,0-9.87h10.834a5.208,5.208,0,0,1-5.417-4.935,5.2,5.2,0,0,1,5.417-4.93h-7.73a5.208,5.208,0,0,1-5.417-4.935,5.2,5.2,0,0,1,5.417-4.935H628.4a92.591,92.591,0,0,0-25.493-6.4C513.8,15.039,481.976,21.94,470.736,29.042a131.152,131.152,0,0,1-45.8,18.3C369.952,57.687,267.125,70.13,173.925,43.359,127.6,30.06,93.179,52.568,72.54,90.114H666.107c-.775-10.921-3.093-21.007-7.351-29.832A5.677,5.677,0,0,1,655.235,61.485Z" transform="translate(-50.13 -20.14)" fill="#6c63ff" opacity="0.1"/>
    <path id="Path_3" data-name="Path 3" d="M32.492,280.23a229.65,229.65,0,0,0,2.432,66.3L584.689,364.86a234.643,234.643,0,0,0,38.2-53.087Zm217.424,47.3H239.082a4.954,4.954,0,1,1,0,9.864H176.493a4.954,4.954,0,1,1,0-9.864h10.834a4.956,4.956,0,1,1,0-9.87h-7.741a4.954,4.954,0,1,1,0-9.864H242.2a4.954,4.954,0,1,1,0,9.864h7.714a4.956,4.956,0,1,1,0,9.87Z" transform="translate(-31.16 -139.336)" fill="#6c63ff" opacity="0.1"/>
    <path id="Path_4" data-name="Path 4" d="M648.37,149.94,48.162,163.25A201.594,201.594,0,0,0,33.78,219.76H637.85a216.138,216.138,0,0,0,8.721-36.018A156.023,156.023,0,0,0,648.37,149.94ZM155.647,193.553H144.813a4.956,4.956,0,1,1,0,9.87H82.2a4.956,4.956,0,1,1,0-9.87H93.037a4.954,4.954,0,1,1,0-9.864H85.3a4.956,4.956,0,1,1,0-9.87h62.616a4.956,4.956,0,1,1,0,9.87h7.736a4.954,4.954,0,1,1,0,9.864Z" transform="translate(-32.367 -79.625)" fill="#6c63ff" opacity="0.1"/>
    <ellipse id="Ellipse_1" data-name="Ellipse 1" cx="40.752" cy="9.149" rx="40.752" ry="9.149" transform="translate(319.117 397.098)" fill="#6c63ff" opacity="0.1"/>
    <ellipse id="Ellipse_2" data-name="Ellipse 2" cx="73.52" cy="6.035" rx="73.52" ry="6.035" transform="translate(381.045 429.27)" fill="#6c63ff" opacity="0.1"/>
    <ellipse id="Ellipse_3" data-name="Ellipse 3" cx="73.52" cy="9.149" rx="73.52" ry="9.149" transform="translate(85.854 417.005)" fill="#6c63ff" opacity="0.1"/>
    <ellipse id="Ellipse_4" data-name="Ellipse 4" cx="55.319" cy="9.149" rx="55.319" ry="9.149" transform="translate(216.15 371.204)" fill="#6c63ff" opacity="0.1"/>
    <ellipse id="Ellipse_5" data-name="Ellipse 5" cx="44.284" cy="9.149" rx="44.284" ry="9.149" transform="translate(242.629 447.411)" fill="#6c63ff" opacity="0.1"/>
    <path id="Path_5" data-name="Path 5" d="M518.305,237.447c-1.17-7.876-8.326-26.256-8.326-26.256h0q-.187-.813-.423-1.625c-5.076-17.443-12.1-18.96-12.1-18.96l-25.168-5.417a1.951,1.951,0,0,1,.542.5,3.488,3.488,0,0,0-.4.06,9.859,9.859,0,0,1-2.2-4.767c-.049-.26-.092-.542-.125-.807a17.7,17.7,0,0,0-1.441-26.614c-.265-.206-.542-.406-.807-.6,1.186-1.262,1.224-3.017.336-4.772-1.983-4.117-6.295-6.723-10.726-8a18.183,18.183,0,0,0-10.412-.222,37.613,37.613,0,0,0-5.45,2.53c-3.342,1.668-7.042,2.99-9.539,5.737a2.8,2.8,0,0,0-.953,2.3,6.214,6.214,0,0,0,.948,1.674,5.051,5.051,0,0,1,.049,4.193,40.626,40.626,0,0,0-1.555,4.03,4.213,4.213,0,0,0,.84,4.047,17.831,17.831,0,0,0,1.571,1.083,8.239,8.239,0,0,1,1.5,1.685q1.5,2,2.979,4.025a41.462,41.462,0,0,1,3.732,5.672,27.64,27.64,0,0,0,2.308,4.334,6.425,6.425,0,0,0,.991,1.04l-.292-.114a4.512,4.512,0,0,0,3.31,1.349h.152a.91.91,0,0,0,.607-.249c0,.184,0,.368,0,.542.06,1.934.049,3.992-.087,5.926l-.233-.119a2.031,2.031,0,0,0-2.167.228L422.6,208.482s-5.038,6.89-4.334,18.786L414.2,245.107s-5.076,15.135-1.17,25.942,6.17,16.988,6.17,16.988,1.56,12.28,3.906,13.283,3.359,1.544,3.359,1.544l.466,2.936h0s.157.287.433.769c1.706,2.969,8.028,13.445,11.7,12.324a46.964,46.964,0,0,1,.6,8.608l3.635,24.4s2.535,6.636,2.378,10.114,2.958,8.434,2.958,8.434a16.116,16.116,0,0,0-1.56,11.349c1.484,6.5,3.359,36.446,3.359,36.446l2.709,7.259-.076,8.51a8.125,8.125,0,0,1-1.679,3.792c-1.755,1.907-1.625,4.112-5.856,6.717s-6.912,3.592-6.912,7.042a9.058,9.058,0,0,1-.13,1.436c-.39,2.535-1.148,3.911,6.63,4.648a20.509,20.509,0,0,0,15.233-5.092s1.343-2.438,7.671-3.424c0,0,2.167-.114,2.281-2.026.043-.661.033-1.923,0-3.315-.1-2.649-.357-5.742-.693-5.894-.423-.19-1.159-2.855-1.414-3.819h1.761s1.625-12.28,0-20.233a32.823,32.823,0,0,1-.157-13.591l-.314-21s-2.167-2.318-.466-6.414,0-24.323,0-24.323.628-7.259,2.421-8.96.087-10.634,0-11.1l3.2,10.72s1.4,21.311,4.377,25.168l.856,9.653s6.089,8.884,4.919,13.667,1.251,22.085,1.251,22.085v17.687s-2.736,7.1,1.083,9.653l1.625-.065c-.542.5-.959,1.262-1.593,1.918-.731.753-1.148,3.619-1.381,6.083-.2,2.086-.26,3.879-.26,3.879a6.387,6.387,0,0,0,4.686,2.779c3.061.179,13.147,7.849,13.147,7.849s9.962,0,12.54-.542l.152-.038a3.386,3.386,0,0,0,1.945-1.587,4.063,4.063,0,0,0,.466-2.92c-.32-1.522-1.528-3.191-4.2-4.61-6.658-3.51-7.649-6.8-7.649-6.8l-4.372-6.56h.623a28.062,28.062,0,0,1,4.372-14.751l-.309-34.36s1.95-11.815-1.4-18.228c0,0-.276-6.793,1.966-8.879s-2.985-23.163-2.985-23.163-1.083-11.316-2.356-21.641h0c5.271,5,10.737-13,11.657-16.2h.135l-.06-.233c.038-.152.06-.228.06-.228h0s-1.17-4.16-.314-3.315,2.969-2.319,2.969-2.319-.314-17.221,3.359-25.9S518.305,237.447,518.305,237.447ZM502.6,248.406l.027-.049c.542,10.514-.1,32.952-.1,32.952s-.726,2.876-1.5,6.262l-.542-21.316h0l-.542-20.081Zm-67.231-7.248s2.654,33.2,0,37.99a25.084,25.084,0,0,0-1.912,6.56c-.878-2.3-2.736-7.708-2.069-10.574.861-3.705-1.717-13.44-1.717-13.667s-.233-5.417,1.625-9.382.639-5.682.639-5.682S433.491,239.9,435.365,241.158Z" transform="translate(-205.499 -74.755)" fill="url(#linear-gradient)"/>
    <path id="Path_6" data-name="Path 6" d="M455.58,451.4c-2.313,10.168-11.511-5.206-13.608-8.895-.271-.482-.423-.764-.423-.764l1-4.675,5.271-2.167a14.724,14.724,0,0,1,2.362,1.538A14.239,14.239,0,0,1,455.58,451.4Z" transform="translate(-219.246 -210.221)" fill="#d38884"/>
    <path id="Path_7" data-name="Path 7" d="M586.355,432.446a.71.71,0,0,1-.06.228,1.151,1.151,0,0,1-.07.244c-.9,3.174-6.268,21.045-11.446,16.083-5.666-5.417-2.914-17.941-2.914-17.941h.038l11.917-1.219,2.362,2.427h0Z" transform="translate(-278.663 -207.902)" fill="#d38884"/>
    <path id="Path_8" data-name="Path 8" d="M524.777,521.555l.3,34.127a27.99,27.99,0,0,0-4.29,14.626l-15.406.607c-3.759-2.53-1.083-9.577-1.083-9.577V543.765s-2.378-17.167-1.23-21.923-4.827-13.543-4.827-13.543l-.845-9.583c-2.914-3.83-4.3-24.983-4.3-24.983l-3.126-10.682c.087.46,1.712,9.377,0,11.018s-2.378,8.889-2.378,8.889,1.685,20.086,0,24.144.455,6.365.455,6.365l.309,20.85a32.6,32.6,0,0,0,.152,13.488c1.609,7.893,0,20.086,0,20.086H471.988l.076-8.51-2.676-7.2s-1.842-29.74-3.3-36.18a16.164,16.164,0,0,1,1.528-11.267s-3.061-4.9-2.909-8.353-2.362-10.032-2.362-10.032l-3.564-24.22a47.052,47.052,0,0,0-1.766-13.8c-2.069-6.9-5.135-15.948-5.135-15.948l3.461.309,17.465,1.555s42.464-2.855,44.366-.482a7.97,7.97,0,0,1,.8,2.476c1.907,8.564,4.426,35.395,4.426,35.395s5.135,20.926,2.931,23-1.934,8.808-1.934,8.808C526.7,509.8,524.777,521.555,524.777,521.555Z" transform="translate(-223.98 -209.066)" fill="#444053"/>
    <path id="Path_9" data-name="Path 9" d="M493.582,692.7c-.119,1.9-2.237,2.015-2.237,2.015-6.208.975-7.53,3.391-7.53,3.391a19.939,19.939,0,0,1-14.946,5.06c-7.638-.737-6.9-2.1-6.5-4.615a9.546,9.546,0,0,0,.125-1.419c0-3.451,2.644-4.431,6.782-7.042s4.025-4.772,5.747-6.668,1.9-5.574,1.9-5.574c1.95-3.4,6.9.542,6.9.542.233,1.2,7.584,1.035,7.584,1.035s.975,3.911,1.479,4.139c.33.152.58,3.218.677,5.85C493.615,690.788,493.626,692.04,493.582,692.7Z" transform="translate(-228.684 -320.928)" fill="#b07473"/>
    <path id="Path_10" data-name="Path 10" d="M493.582,703.657c-.119,1.9-2.237,2.015-2.237,2.015-6.208.975-7.53,3.391-7.53,3.391a19.939,19.939,0,0,1-14.946,5.06c-7.638-.737-6.9-2.1-6.5-4.615,3.413.845,9.935,2.026,13.743-.043,5.292-2.871,9.09-4.875,9.09-4.875l8.364-4.209C493.615,701.75,493.626,703,493.582,703.657Z" transform="translate(-228.684 -331.89)" opacity="0.1"/>
    <path id="Path_11" data-name="Path 11" d="M579.616,704.784a3.3,3.3,0,0,1-1.907,1.576l-.146.038c-2.53.542-12.307.542-12.307.542s-9.886-7.643-12.876-7.817a6.288,6.288,0,0,1-4.6-2.763s.06-1.777.249-3.846c.233-2.448.639-5.292,1.36-6.04,1.322-1.381,1.625-3.25,4.6-2.069,0,0,4.247-7.486,9.252-1.7l5.179,7.855s.975,3.25,7.535,6.777c2.622,1.408,3.792,3.066,4.122,4.577A4.036,4.036,0,0,1,579.616,704.784Z" transform="translate(-267.931 -322.783)" fill="#b07473"/>
    <path id="Path_12" data-name="Path 12" d="M579.616,714.94c-.585.493-1.23,1.024-1.907,1.576l-.146.038c-2.53.542-12.307.542-12.307.542s-9.886-7.643-12.876-7.817a6.288,6.288,0,0,1-4.6-2.763s.06-1.777.249-3.846c3.044.91,7.654,2.519,8.889,4.252,1.9,2.638,7.654,6.322,7.654,6.322s10.737-1.035,15.5-1.175A4.036,4.036,0,0,1,579.616,714.94Z" transform="translate(-267.931 -332.939)" opacity="0.1"/>
    <path id="Path_13" data-name="Path 13" d="M505.2,216.319l-14.138,14.946s-17.134-1.262-14.144-6.322c1.522-2.579,1.761-7.974,1.625-12.665-.125-4.523-.59-8.375-.59-8.375s24.03-11.961,22.21-.807a18.358,18.358,0,0,0-.065,6.365C501.117,215.095,505.2,216.319,505.2,216.319Z" transform="translate(-235.293 -101.807)" fill="#d38884"/>
    <path id="Path_14" data-name="Path 14" d="M501.308,203.1a18.358,18.358,0,0,0-.065,6.365,17.638,17.638,0,0,1-12.578,5.249c-3.25,0-6.766-2.671-9.393-4.214-.125-4.529-.152-6.593-.152-6.593S503.15,191.942,501.308,203.1Z" transform="translate(-236.464 -101.807)" opacity="0.1"/>
    <path id="Path_15" data-name="Path 15" d="M499.456,179.194a17.708,17.708,0,1,1-6.663-13.835A17.708,17.708,0,0,1,499.456,179.194Z" transform="translate(-229.552 -84.919)" fill="#d38884"/>
    <path id="Path_16" data-name="Path 16" d="M520.242,436.489c-4.409,10.493-32.773,10.709-32.773,10.709V435.758l-1.717-.114c.742,3.277-1.04,11.267-1.04,11.267-22.416,3.164-27.882-9.61-27.882-9.61l.78-4.372,17.465,1.555s42.464-2.855,44.366-.482A7.969,7.969,0,0,1,520.242,436.489Z" transform="translate(-226.249 -209.318)" opacity="0.1"/>
    <path id="Path_17" data-name="Path 17" d="M487.469,351.706V340.265l-1.717-.108c.742,3.25-1.04,11.267-1.04,11.267-16.869,2.378-24.138-4.263-26.7-7.7a10.48,10.48,0,0,1-1.181-1.907l6.847-38.515,1.625-56.684,2.454-9.946.569-4.772v-.054h.06l1.744.748,10.439,4.512,11.858-8.954.173-.125.59-.45.98.785,2.438,1.956,7.817,50.481s13.543,38.867,16.078,54.555c.1.628.184,1.213.249,1.761C522.425,351.441,487.469,351.706,487.469,351.706Z" transform="translate(-226.249 -115.207)" fill="#6c63ff"/>
    <circle id="Ellipse_6" data-name="Ellipse 6" cx="1.008" cy="1.008" r="1.008" transform="translate(254.579 122.01)" fill="#67647e"/>
    <circle id="Ellipse_7" data-name="Ellipse 7" cx="1.008" cy="1.008" r="1.008" transform="translate(255.044 131.208)" fill="#67647e"/>
    <circle id="Ellipse_8" data-name="Ellipse 8" cx="1.008" cy="1.008" r="1.008" transform="translate(256.052 146.099)" fill="#67647e"/>
    <circle id="Ellipse_9" data-name="Ellipse 9" cx="1.008" cy="1.008" r="1.008" transform="translate(257.715 162.139)" fill="#67647e"/>
    <circle id="Ellipse_10" data-name="Ellipse 10" cx="1.008" cy="1.008" r="1.008" transform="translate(258.723 177.199)" fill="#67647e"/>
    <circle id="Ellipse_11" data-name="Ellipse 11" cx="1.008" cy="1.008" r="1.008" transform="translate(259.73 193.238)" fill="#67647e"/>
    <circle id="Ellipse_12" data-name="Ellipse 12" cx="1.008" cy="1.008" r="1.008" transform="translate(259.329 209.105)" fill="#67647e"/>
    <path id="Path_18" data-name="Path 18" d="M468.992,312.383s-1.127,14.751-3.2,19.041-2.99,16.327-2.99,16.327l-4.8-.542a10.485,10.485,0,0,1-1.181-1.907l6.847-38.515,1.625-56.684,2.459-9.951.569-4.772.065-.027a1.939,1.939,0,0,1,1.712.027l.228.119q-.1.293-.2.6c-1.874,5.867-2.573,16.679-2.573,16.679s2.708,19.778,2.99,28.976S468.992,312.383,468.992,312.383Z" transform="translate(-226.244 -118.684)" opacity="0.1"/>
    <path id="Path_19" data-name="Path 19" d="M450.179,436.455a2.772,2.772,0,0,1-.184.358c-1.863,3.147-6.587,5.146-8.023,5.693-.271-.482-.423-.764-.423-.764l1-4.675,5.271-2.167a14.722,14.722,0,0,1,2.362,1.555Z" transform="translate(-219.246 -210.221)" opacity="0.1"/>
    <path id="Path_20" data-name="Path 20" d="M424.643,298.81l-4.372,2.606-3.982,17.708s-4.984,15.021-1.154,25.753,6.056,16.874,6.056,16.874,1.533,12.188,3.835,13.185,3.294,1.533,3.294,1.533l.46,2.914s6.24-2.118,8.445-5.85-1.625-13-1.625-13-3.294-7.9-2.448-11.576-1.69-13.337-1.69-13.543-.228-5.368,1.625-9.317.618-5.634.618-5.634l-1.154-11.267Z" transform="translate(-206.477 -147.852)" fill="#67647e"/>
    <path id="Path_21" data-name="Path 21" d="M550.481,339.388s-11.576,4.366-15.254.542-3.3-21.771-3.3-21.771-3.521-33.114-5.747-38.553-1.083-44.691-1.083-44.691-1.5-5.076-2.8-6.4a1.417,1.417,0,0,0-.276-.222l.45.1,1.571.336,2.438,1.956L534.3,281.16s13.543,38.867,16.078,54.555Z" transform="translate(-256.125 -115.533)" opacity="0.1"/>
    <path id="Path_22" data-name="Path 22" d="M586.911,432.9h-.13c-1.457.19-14.317,1.744-14.371-.932a7.854,7.854,0,0,1,.049-.926l11.917-1.219,2.362,2.427h0c.043.157.076.293.108.4Z" transform="translate(-279.219 -207.893)" opacity="0.1"/>
    <path id="Path_23" data-name="Path 23" d="M574.571,266.07l8.451,4.409s7.042,18.234,8.169,26.051c0,0,5.217,20.942,1.625,29.555s-3.294,25.709-3.294,25.709-2.069,3.142-2.914,2.3.309,3.294.309,3.294-14.447,1.918-14.507-.921,3.315-16.4,3.315-16.4.921-32.269-.385-37.329S574.571,266.07,574.571,266.07Z" transform="translate(-279.218 -132.847)" fill="#67647e"/>
    <path id="Path_24" data-name="Path 24" d="M524.013,329.52s-4.756,11.647-6.289,12.416.309,3.83.309,3.83S526.695,333.659,524.013,329.52Z" transform="translate(-253.877 -161.926)" opacity="0.1"/>
    <path id="Path_25" data-name="Path 25" d="M518.333,254.095c.054-.222-5.672,5.617-7.2,6.5S516.724,260.541,518.333,254.095Z" transform="translate(-251.035 -127.356)" opacity="0.1"/>
    <path id="Path_26" data-name="Path 26" d="M488.675,327.82s-8.738,5.65-7.584,7.887S488.675,327.82,488.675,327.82Z" transform="translate(-237.32 -161.147)" opacity="0.1"/>
    <path id="Path_27" data-name="Path 27" d="M524.47,480.07a46.773,46.773,0,0,0,19.008,5.959Z" transform="translate(-257.248 -230.922)" opacity="0.1"/>
    <path id="Path_28" data-name="Path 28" d="M491.5,501.3s6.9,8.667,10.043,8.889S491.5,501.3,491.5,501.3Z" transform="translate(-242.138 -240.652)" opacity="0.1"/>
    <path id="Path_29" data-name="Path 29" d="M502.291,564c-.309.152-3.911,7.817-7.584,8.05S502.291,564,502.291,564Z" transform="translate(-243.27 -269.387)" opacity="0.1"/>
    <path id="Path_30" data-name="Path 30" d="M568.33,594.808s6.836-1.533,8.358,3.369C576.688,598.161,576.228,596.628,568.33,594.808Z" transform="translate(-277.349 -283.402)" opacity="0.1"/>
    <path id="Path_31" data-name="Path 31" d="M559.84,646.254s8.283-1.69,10.043.612S559.84,646.254,559.84,646.254Z" transform="translate(-273.458 -306.81)" opacity="0.1"/>
    <path id="Path_32" data-name="Path 32" d="M509.709,654c0,.076-8.429,1.69-8.126,2.763s8.992.921,9.3-.769A1.625,1.625,0,0,0,509.709,654Z" transform="translate(-246.755 -310.634)" opacity="0.1"/>
    <path id="Path_33" data-name="Path 33" d="M554.75,667.008s13.851-1.69,13,1.224S554.75,667.008,554.75,667.008Z" transform="translate(-271.125 -316.372)" opacity="0.1"/>
    <path id="Path_34" data-name="Path 34" d="M420.89,352.44c.076.228,9.122,1.457,10.347,4.372,0,0-8.889-4.144-10.292-4.144" transform="translate(-209.778 -172.43)" opacity="0.1"/>
    <path id="Path_35" data-name="Path 35" d="M438.454,396.16s-7.513,2.378-6.977,5.959S430.713,400.461,438.454,396.16Z" transform="translate(-214.617 -192.467)" opacity="0.1"/>
    <path id="Path_36" data-name="Path 36" d="M437.92,427.175s2.736-3.754,5.341-3.066S437.92,427.175,437.92,427.175Z" transform="translate(-217.582 -205.237)" opacity="0.1"/>
    <path id="Path_37" data-name="Path 37" d="M492.815,165.356a4.263,4.263,0,0,1-.878.655c-2.167,1.262-2.763,3.207-3.792,5.45-.959,2.053-2.015,4.225-3.949,5.39-2.5,1.506-5.785.953-8.38,2.264a6.5,6.5,0,0,0-3.467,6.408,18.486,18.486,0,0,0,.737,2.936,20.936,20.936,0,0,1,.791,6.376,1.081,1.081,0,0,1,0,.19,17.7,17.7,0,1,1,18.96-29.669Z" transform="translate(-229.574 -84.916)" opacity="0.1"/>
    <path id="Path_38" data-name="Path 38" d="M484.874,151.334c-1.945-4.084-6.175-6.674-10.525-7.936a17.678,17.678,0,0,0-10.222-.217,37.491,37.491,0,0,0-5.347,2.508c-3.283,1.658-6.891,2.969-9.361,5.693a2.853,2.853,0,0,0-.937,2.286,6.384,6.384,0,0,0,.926,1.658,5.03,5.03,0,0,1,.049,4.166,38.2,38.2,0,0,0-1.528,4,4.212,4.212,0,0,0,.823,4.014,15.011,15.011,0,0,0,1.549,1.083,8.154,8.154,0,0,1,1.468,1.668l2.925,4a40.548,40.548,0,0,1,3.662,5.628,26.822,26.822,0,0,0,2.264,4.3,4.9,4.9,0,0,0,4.106,2.194.8.8,0,0,0,.65-.309.856.856,0,0,0,.081-.406,20.792,20.792,0,0,0-.775-6.354,18.333,18.333,0,0,1-.737-2.936,6.527,6.527,0,0,1,3.467-6.408c2.6-1.311,5.888-.758,8.38-2.259,1.939-1.17,3-3.342,3.949-5.417,1.046-2.243,1.625-4.187,3.792-5.45S485.952,153.485,484.874,151.334Z" transform="translate(-222.094 -76.225)" fill="#585268"/>
    <path id="Path_39" data-name="Path 39" d="M501.63,693.06s2.709,3.451,2,5.417S501.63,693.06,501.63,693.06Z" transform="translate(-246.781 -328.535)" opacity="0.1"/>
    <path id="Path_40" data-name="Path 40" d="M569.28,705s.6-4.626,3.012-4.669,2.53-.249,4.372.46,3.57,1.809,3.017,1.972-3.169-2.644-5.856-1.208A19.349,19.349,0,0,0,569.28,705Z" transform="translate(-277.784 -331.838)" opacity="0.1"/>
    <path id="Path_41" data-name="Path 41" d="M480.734,246.543l7.584-5.314s-11.094-6.555-12.416-5.634-2.232,9.209-2.232,9.209Z" transform="translate(-233.967 -118.84)" opacity="0.1"/>
    <path id="Path_42" data-name="Path 42" d="M480.674,245.826l7.584-5.417s-11.094-6.555-12.416-5.634-2.232,9.664-2.232,9.664Z" transform="translate(-233.939 -118.464)" fill="#e1e7ef"/>
    <path id="Path_43" data-name="Path 43" d="M480.674,245.826l7.584-5.417s-11.094-6.555-12.416-5.634-2.232,9.664-2.232,9.664Z" transform="translate(-233.939 -118.464)" fill="#6c63ff"/>
    <path id="Path_44" data-name="Path 44" d="M455.15,234.652l-.228-.114a1.966,1.966,0,0,0-2.129.222l-22.752,18.456s-4.946,6.842-4.258,18.645L439.2,290.87s1.533-6.435,3.369-5.211c0,0,2.606,32.963,0,37.713s-3.754,22.535-3.754,22.535l8.814,1s.921-12.037,2.99-16.327,3.2-19.041,3.2-19.041,1.863-21.43,1.555-30.628-2.99-28.976-2.99-28.976S453.135,240.34,455.15,234.652Z" transform="translate(-211.991 -118.298)" fill="#67647e"/>
    <path id="Path_45" data-name="Path 45" d="M513.893,239.882l-9.453-3.5s12.037-13.185,13.543-5.872Z" transform="translate(-248.068 -115.538)" opacity="0.1"/>
    <path id="Path_46" data-name="Path 46" d="M513.893,239.032l-9.453-3.5s12.037-13.185,13.543-5.872Z" transform="translate(-248.068 -115.148)" fill="#e1e7ef"/>
    <path id="Path_47" data-name="Path 47" d="M513.893,239.032l-9.453-3.5s12.037-13.185,13.543-5.872Z" transform="translate(-248.068 -115.148)" fill="#6c63ff"/>
    <path id="Path_48" data-name="Path 48" d="M521.32,228.114a.542.542,0,0,1,.39.087Z" transform="translate(-255.804 -115.449)" opacity="0.1"/>
    <path id="Path_49" data-name="Path 49" d="M523,226.422l25.081,5.417s6.9,1.533,11.885,18.857-6.826,38.548-6.826,38.548l-2.606-2.216,1.306,50.59s-11.576,4.366-15.254.542-3.294-21.787-3.294-21.787-3.526-33.109-5.753-38.553-1.083-44.685-1.083-44.685S524.408,226.119,523,226.422Z" transform="translate(-256.574 -114.672)" fill="#67647e"/>
    <path id="Path_50" data-name="Path 50" d="M565.082,285.748c-.352.325-.764,15.634.769,27.286a148.693,148.693,0,0,0,4.334,21l-2.275-46.679S566.154,284.751,565.082,285.748Z" transform="translate(-275.709 -141.761)" opacity="0.1"/>
    <path id="Path_51" data-name="Path 51" d="M559.7,261.6c.612.385,3.3,6.744,2.069,9.35S559.7,261.6,559.7,261.6Z" transform="translate(-273.394 -130.798)" opacity="0.1"/>
    <path id="Path_52" data-name="Path 52" d="M496.2,153.9a13.846,13.846,0,0,0-5.515-5.775,13.115,13.115,0,0,1,4.133,4.875c1.083,2.167.764,4.334-1.343,5.52s-2.763,3.207-3.792,5.45c-.959,2.053-2.015,4.225-3.954,5.417-2.492,1.506-5.78.948-8.38,2.259a6.544,6.544,0,0,0-3.467,6.414,18.418,18.418,0,0,0,.742,2.931,20.955,20.955,0,0,1,.791,6.376.856.856,0,0,1-.087.406.775.775,0,0,1-.645.309,3.732,3.732,0,0,1-1.891-.352,4.4,4.4,0,0,0,3.25,1.273.639.639,0,0,0,.726-.715,20.784,20.784,0,0,0-.785-6.376,17.8,17.8,0,0,1-.742-2.936,6.528,6.528,0,0,1,3.467-6.408c2.6-1.311,5.888-.758,8.38-2.259,1.939-1.17,3-3.342,3.949-5.417,1.046-2.243,1.625-4.187,3.792-5.45S497.28,156.055,496.2,153.9Z" transform="translate(-233.563 -78.796)" opacity="0.1"/>
    <path id="Path_53" data-name="Path 53" d="M711.534,232.468c-7.465-.146-14.052-5.417-17.784-11.858a11.918,11.918,0,0,1-1.8-5.076,5.855,5.855,0,0,1,.206-1.213,12.591,12.591,0,0,0,.542-1.858,3.253,3.253,0,0,0,0-.758s0,0,0-.043a4.481,4.481,0,0,0-1.625-3.646c-1-.937-2.248-1.625-3.288-2.557-3.207-2.817-4.182-7.335-4.242-11.636v-.228c.038-1.842.184-3.689.168-5.531a23.246,23.246,0,0,0-.135-3.131,10.346,10.346,0,0,0-3.348-6.923c-5.341-4.334-14.323.179-19.853-3.917-1.343-1-2.432-2.481-4.063-2.871a6.844,6.844,0,0,0-3.711.5c-4.074,1.343-8.618,3.109-10.211,7.042-.91,2.259-.655,4.837-1.49,7.123a35.574,35.574,0,0,1-2.329,4.3,6.733,6.733,0,0,0-.867,3.592,4.052,4.052,0,0,0,.265,1.912,4.875,4.875,0,0,0,1.327,1.9,6.313,6.313,0,0,1-.791,1.268c-1.04,1.273-2.638,2.167-3.721,3.434-2,2.324-1.928,5.482-.943,8.212s2.768,5.217,4,7.876a4.227,4.227,0,0,1,.406,3.591,10.3,10.3,0,0,1-1.8,2.091,6.571,6.571,0,0,0-1.625,3.629c-12.194,2.784-12.2,12.584-12.2,12.584h0l-6.587,16.565s-1.056,2.79-2.3,6.473l-7.8-1.4,5.417,9.068c-1.024,3.694-1.75,7.118-1.511,8.841,0,0-2.421,11.376,1.885,13.364l9.5,4.274a5.629,5.629,0,0,0,1.316.59l.385.173a1.018,1.018,0,0,0,.888,0h.13a1.279,1.279,0,0,0,.542-.081,1.084,1.084,0,0,0,.477-.515.161.161,0,0,1,0-.054l2.844-.823,2.411,2.855c1.083.764,2.167,1.425,3.191,2.021L629.683,338.7s-.6,49.3-2.421,60.53a31.461,31.461,0,0,0-.422,8.927l-.07.119c.45,3.169,1.625,3.792,1.625,3.792v-.043a.35.35,0,0,0,.07.043,31.912,31.912,0,0,1,1.95-4.182v.813c-.038,4.182-.168,10.038-.6,13.846-.737,6.5,1.885,27.925,1.885,27.925l.9,19.5a18.028,18.028,0,0,1-2.221,9.5c-2.167,3.895-4.935,9.377-5.135,11.809a2.431,2.431,0,0,0,0,.4h0l-4.648,5.59s-1.815,2.806,2.286,3.938c2.2.612,6.007,0,9.063-.72a6.056,6.056,0,0,0,4.7-5.894,20.856,20.856,0,0,1,3.835-7.362l.764,4.491,5.114,1.268.656-12.307a5.417,5.417,0,0,0,.352-2.167h0c1.008-8.754-2.373-7.968-2.373-7.968a.471.471,0,0,1,.162.3l-.162-.3h0c-2.075-4.1-1.083-10.834-1.083-10.834s2.708-19.5,3.635-24.653c.666-3.64.39-15.558.168-22.21a7.925,7.925,0,0,0-.027-.807c7.931-.1,17.649-.368,24.469-1.029v.8L670.9,457.892a25.291,25.291,0,0,1-1.766,8.57.469.469,0,0,1-.06.157,37.376,37.376,0,0,0-2.5,12.075l-.585,14.626v.406h0c-1.018.39-2.627,1.522-2.671,4.8-.07,4.81,8.407,3.207,8.407,3.207,8.472,0,8.543-8.819,8.543-8.819s.265-8.088.672-13.5-1.278-4.22-1.278-4.22l-.13,15.4V477.22l.13-1.956v-.054h0v-.417l1.067-15.877s7.806-26.457,9.014-31.533c.861-3.608.5-14.474.222-20.482a4.776,4.776,0,0,0-.043-.8c2.421-.217,4.561-.238,5.417-.238h.4s-.4-42.491-1.414-58.5-2.622-30.666-6.658-35.075c-2.438-2.665-5.834-10.894-8.126-16.988a84.977,84.977,0,0,0,14.935,4.875c12.779,2.676,11.029-8.418,11.029-8.418l-1.295-20.98h.087a106.973,106.973,0,0,0-1.408-16.4,48.258,48.258,0,0,0-3.294-11.917c1.387-.542,2.757-1.121,4.1-1.717,3.472-1.533,7.383-3.705,7.882-7.448H711.4a4.827,4.827,0,0,0,.13-.823ZM632.321,262.8h0c.027,2.167-.054,5.926-.184,10.081l-4.057-5.417,4.068-6.6ZM686.686,273.8Zm1.69,8.2-6.76-2.167a30.339,30.339,0,0,1,4.177-5.168l.585-.542-.211.043.325-.3.2-.043-.309.3.368-.076a11.533,11.533,0,0,0,2.3,4.632c2.427,2.649-.666,3.321-.666,3.321Z" transform="translate(-294.585 -89.331)" fill="url(#linear-gradient-2)"/>
    <path id="Path_54" data-name="Path 54" d="M645.316,715.66l-.791,14.994-5.043-1.262-1.062-6.235Z" transform="translate(-292.591 -327.982)" fill="#a27772"/>
    <path id="Path_55" data-name="Path 55" d="M645.316,715.66l-.791,14.994-5.043-1.262-1.062-6.235Z" transform="translate(-292.591 -327.982)" opacity="0.1"/>
    <path id="Path_56" data-name="Path 56" d="M716.48,686.215l7.692,1.593,5.7-5.038v-14.2l.13-1.939v-.06h0v-.412l1.062-15.78s7.7-26.267,8.895-31.31c.845-3.575.493-14.366.211-20.33-.114-2.443-.211-4.079-.211-4.079L722.98,590.55l-.357,13.055-1.24,45.741a25.348,25.348,0,0,1-1.739,8.51l-.06.157A37.225,37.225,0,0,0,717.119,670l-.574,14.545v.4Z" transform="translate(-345.245 -281.555)" fill="#cc818c"/>
    <path id="Path_57" data-name="Path 57" d="M741.45,730.141v.4h0v-.412Z" transform="translate(-356.689 -345.524)" opacity="0.1"/>
    <path id="Path_58" data-name="Path 58" d="M716.48,763.213l7.692,1.593,5.7-5.038V758.56a1.625,1.625,0,0,1-.818,1.3l-.081.049a15.33,15.33,0,0,1-8.635,1.706l-3-.255a2.809,2.809,0,0,0-.8.2v.4Z" transform="translate(-345.245 -358.553)" opacity="0.1"/>
    <path id="Path_59" data-name="Path 59" d="M726.786,747.529l.081-.043a1.625,1.625,0,0,0,.829-1.408l.125-15.281s1.658-1.186,1.257,4.187-.661,13.4-.661,13.4-.065,8.754-8.423,8.754c0,0-8.359,1.593-8.294-3.185s3.451-4.973,3.451-4.973l3,.26A15.293,15.293,0,0,0,726.786,747.529Z" transform="translate(-343.055 -345.778)" fill="#b07473"/>
    <path id="Path_60" data-name="Path 60" d="M642.52,687.2c.2,3.451,10.347,1.457,10.347,1.457L659.7,675.4s5.7-4.382,2.849-8.228a6.129,6.129,0,0,1-.417-.656l-.027-.032h0c-.06-.1-.114-.2-.168-.309h0c-2.048-4.063-1.04-10.726-1.04-10.726s2.649-19.371,3.581-24.48c.655-3.608.385-15.444.168-22.064-.087-2.752-.168-4.6-.168-4.6l-16.852-4.512v5.027c-.038,4.155-.168,9.967-.6,13.748-.726,6.43,1.858,27.724,1.858,27.724l.894,19.377a17.947,17.947,0,0,1-2.167,9.431c-2.113,3.868-4.875,9.317-5.065,11.728A2.364,2.364,0,0,0,642.52,687.2Z" transform="translate(-311.35 -285.79)" fill="#cc818c"/>
    <path id="Path_61" data-name="Path 61" d="M642.516,743.648c.2,3.451,10.347,1.457,10.347,1.457l6.831-13.261s5.7-4.382,2.849-8.228a6.132,6.132,0,0,1-.417-.656c-.092,2.01-2.3,7.042-2.3,7.042s-5.639,11.284-7.432,13.868-9.583-.482-9.875-.59A2.364,2.364,0,0,0,642.516,743.648Z" transform="translate(-311.346 -342.238)" opacity="0.1"/>
    <path id="Path_62" data-name="Path 62" d="M657.672,722.285s3.337-.775,2.34,7.914h0a5.6,5.6,0,0,1-2.638,4.967,18.969,18.969,0,0,0-7.936,11.007h0a6,6,0,0,1-4.632,5.85c-3.012.7-6.766,1.322-8.938.715-4.047-1.127-2.254-3.911-2.254-3.911l4.642-5.509s8.093,3.185,9.881.6,7.432-13.862,7.432-13.862S658.664,723.016,657.672,722.285Z" transform="translate(-307.087 -341.92)" fill="#b07473"/>
    <path id="Path_63" data-name="Path 63" d="M728.177,593.52l-.358,13.055c4.523-.439,7.763-1.051,8.315-1.912,1.2-1.853,5.542-2.633,9.236-2.952-.114-2.443-.211-4.079-.211-4.079Z" transform="translate(-350.442 -282.916)" opacity="0.1"/>
    <path id="Path_64" data-name="Path 64" d="M651.94,607.747A6.2,6.2,0,0,1,653.8,605.5c1.788-.991,1.593,6.37,1.593,6.37s5.959.054,13.57-.043c-.087-2.752-.168-4.6-.168-4.6L651.94,602.72S651.973,604.811,651.94,607.747Z" transform="translate(-315.667 -287.132)" opacity="0.1"/>
    <path id="Path_65" data-name="Path 65" d="M646.9,511.164s1.993-5.417,3.792-6.381,1.593,6.365,1.593,6.365,43.781.4,45.969-2.985,14.924-3.185,14.924-3.185-.4-42.188-1.392-58.1-2.584-30.449-6.565-34.826c-2.573-2.833-6.235-12-8.5-18.109-1.23-3.337-2.048-5.769-2.048-5.769l-41.787,2.383-.341,3.386-4.437,44.376s-.6,48.954-2.389,60.1S646.9,511.164,646.9,511.164Z" transform="translate(-312.555 -188.805)" fill="#444053"/>
    <g id="Group_7" data-name="Group 7" transform="translate(332.644 199.365)" opacity="0.1">
      <path id="Path_66" data-name="Path 66" d="M702.969,508.163c2.167-3.38,14.924-3.185,14.924-3.185s-.4-42.188-1.392-58.1-2.584-30.449-6.565-34.826c-2.584-2.844-6.235-12-8.5-18.109-1.035-2.806-1.777-4.967-1.983-5.585l3.25-.184s.818,2.432,2.053,5.769c2.264,6.11,5.921,15.276,8.494,18.109,3.982,4.377,5.574,18.905,6.565,34.826s1.4,58.1,1.4,58.1-12.735-.2-14.929,3.185c-1.869,2.887-34.084,3.023-43.434,3C674.849,511.131,701.278,510.774,702.969,508.163Z" transform="translate(-653.311 -388.17)"/>
      <path id="Path_67" data-name="Path 67" d="M647.336,603.361c.807-.45,1.208.8,1.408,2.308a31.241,31.241,0,0,0-1.88,4.074s-1.154-.623-1.625-3.792A7.374,7.374,0,0,1,647.336,603.361Z" transform="translate(-645.24 -486.749)"/>
    </g>
    <path id="Path_68" data-name="Path 68" d="M665.18,194.676c-2.893,3.944.033,9.55-3.071,13.386-1.024,1.268-2.6,2.167-3.667,3.413-1.977,2.308-1.9,5.444-.932,8.153s2.709,5.179,3.944,7.822a4.185,4.185,0,0,1,.4,3.564,10.1,10.1,0,0,1-1.777,2.075,7.482,7.482,0,0,0-.975,7.941c1.073,2.622,3.12,4.875,5.141,7.1a3.509,3.509,0,0,0,5.1,1.165,20.043,20.043,0,0,0,9.122-26.159c-1.679-4.025-4.48-7.882-4.507-12.134,0-3.375,1.734-6.6,2.042-9.957.374-4.084-2.042-10.569-6.972-12.351C669.351,191.312,666.648,192.65,665.18,194.676Z" transform="translate(-317.915 -97.384)" fill="#585268"/>
    <path id="Path_69" data-name="Path 69" d="M665.18,194.676c-2.893,3.944.033,9.55-3.071,13.386-1.024,1.268-2.6,2.167-3.667,3.413-1.977,2.308-1.9,5.444-.932,8.153s2.709,5.179,3.944,7.822a4.185,4.185,0,0,1,.4,3.564,10.1,10.1,0,0,1-1.777,2.075,7.482,7.482,0,0,0-.975,7.941c1.073,2.622,3.12,4.875,5.141,7.1a3.509,3.509,0,0,0,5.1,1.165,20.043,20.043,0,0,0,9.122-26.159c-1.679-4.025-4.48-7.882-4.507-12.134,0-3.375,1.734-6.6,2.042-9.957.374-4.084-2.042-10.569-6.972-12.351C669.351,191.312,666.648,192.65,665.18,194.676Z" transform="translate(-317.915 -97.384)" opacity="0.1"/>
    <path id="Path_70" data-name="Path 70" d="M704.594,464.55c-5.791.3-11.24,2.8-16.311,5.612s-9.978,6.008-15.433,8.006" transform="translate(-325.25 -223.81)" opacity="0.1"/>
    <path id="Path_71" data-name="Path 71" d="M701.813,489.74a23.873,23.873,0,0,0-15.032,7.313c-1.408,1.49-2.622,3.158-4.09,4.588a18.169,18.169,0,0,1-8.061,4.567" transform="translate(-326.066 -235.354)" opacity="0.1"/>
    <path id="Path_72" data-name="Path 72" d="M699.268,508.91a26.283,26.283,0,0,0-12.091,7.291c-.888.959-1.7,1.983-2.584,2.942-4.794,5.146-11.565,7.876-18.1,10.46" transform="translate(-322.335 -244.14)" opacity="0.1"/>
    <path id="Path_73" data-name="Path 73" d="M706.644,242.823a118.877,118.877,0,0,0,1.192,13.824c.542,3.25,1.3,6.175,2.389,7.47,3.185,3.792-15.52,8.857-15.52,8.857l-11.045-8.559s8.754-8.061,4.675-15.921S706.644,242.823,706.644,242.823Z" transform="translate(-330.204 -122.065)" fill="#cc818c"/>
    <path id="Path_74" data-name="Path 74" d="M658.79,393.939h44.176c-1.23-3.337-2.048-5.769-2.048-5.769l-41.787,2.383Z" transform="translate(-318.806 -188.805)" opacity="0.1"/>
    <path id="Path_75" data-name="Path 75" d="M646.244,340.013h47.231a16.388,16.388,0,0,1,1.891-12.524,27.68,27.68,0,0,1,4.946-6.414l.325-.3,16.49-3.651.888-.2s.135-29.983-10.482-34.1a62.073,62.073,0,0,1-16.982-9.68l-14.588,4.507-10.747-5.417c-3.451,3.711-12.605,2.253-12.605,2.253-14.989,1.723-14.989,13-14.989,13s8.754,20.428,9.42,20.428S646.244,340.013,646.244,340.013Z" transform="translate(-309.104 -135.675)" fill="#6c63ff"/>
    <path id="Path_76" data-name="Path 76" d="M672.719,357.2s-9.632-2.134-12.909-5.867" transform="translate(-319.274 -171.921)" opacity="0.1"/>
    <path id="Path_77" data-name="Path 77" d="M763.84,341.51l-11.17,9.155a19.015,19.015,0,0,0,.368,2.167l.325-.3,16.489-3.651Z" transform="translate(-361.831 -167.421)" opacity="0.1"/>
    <path id="Path_78" data-name="Path 78" d="M717.46,380.471s2.443,1.376,6.186,3.185h6.419a16.388,16.388,0,0,1,1.891-12.524L720.64,367.47C724.491,371.051,717.46,380.471,717.46,380.471Z" transform="translate(-345.695 -179.318)" opacity="0.1"/>
    <path id="Path_79" data-name="Path 79" d="M633.021,293.76l-6.63,3.581-6.5,16.452s-6.766,18.039-6.105,22.817c0,0-2.383,11.278,1.858,13.266l11.051,5.005a1.029,1.029,0,0,0,1.327-1.419c-1.576-2.985-3.31-7.654-.542-10.222l-3.185-6.63,11.511-18.84,3.846-6.5Z" transform="translate(-297.875 -145.537)" fill="#6c63ff"/>
    <path id="Path_80" data-name="Path 80" d="M677.017,351.343c.574,2.34,2.513,5.959,8.933,7.308l7.042,5.769,7.492,3.4,3.055,1.381,1.295-9.355-2.942-1.625-3.429-1.874s-7.736-14.014-19.983-8.126A2.709,2.709,0,0,0,677.017,351.343Z" transform="translate(-327.12 -169.833)" opacity="0.1"/>
    <path id="Path_81" data-name="Path 81" d="M677.766,349.9c.574,2.346,2.508,5.959,8.927,7.308l7.042,5.769,7.5,3.4,3.05,1.381,1.295-9.355-2.941-1.625-3.4-1.858s-7.741-14.014-19.989-8.1A2.709,2.709,0,0,0,677.766,349.9Z" transform="translate(-327.469 -169.186)" fill="#cc818c"/>
    <circle id="Ellipse_13" data-name="Ellipse 13" cx="17.112" cy="17.112" r="17.112" transform="translate(346.988 98.668)" opacity="0.1"/>
    <circle id="Ellipse_14" data-name="Ellipse 14" cx="17.112" cy="17.112" r="17.112" transform="translate(346.988 98.272)" fill="#cc818c"/>
    <path id="Path_82" data-name="Path 82" d="M718.526,285.849l-5.146-10s7.53-3.044,8.077-6.571,7.215,4.133,5.775,6.674S718.526,285.849,718.526,285.849Z" transform="translate(-343.825 -133.899)" opacity="0.1"/>
    <path id="Path_83" data-name="Path 83" d="M718.526,284.379l-5.146-10s7.53-3.044,8.077-6.571,7.215,4.139,5.775,6.674S718.526,284.379,718.526,284.379Z" transform="translate(-343.825 -133.226)" fill="#6c63ff"/>
    <path id="Path_84" data-name="Path 84" d="M627.77,343.716,656.2,381.944s-10.482,5.7-24.918-4.507L625.05,370l-17.8-30Z" transform="translate(-295.186 -166.729)" fill="#f6f8fb"/>
    <path id="Path_85" data-name="Path 85" d="M634.236,376.9l2.589-.07s15.818-15.352,19.7-7.584-9.854,15.027-9.854,15.027l-4.177,2.253-5.444,1.625-3.483-4.675Z" transform="translate(-307.248 -179.125)" fill="#cc818c"/>
    <path id="Path_86" data-name="Path 86" d="M635.025,392.146a3.865,3.865,0,0,1,.065,2.676,1.083,1.083,0,0,1-.471.515,1.208,1.208,0,0,1-.542.076,5.444,5.444,0,0,1-3.57-1.766,16.3,16.3,0,0,1-2.313-3.348c-.7-1.23-1.436-2.589-1.186-3.987.282-1.522,1.625-2.579,2.941-3.434,2.622-1.733,2.709.287,3.283,2.519S634.424,389.893,635.025,392.146Z" transform="translate(-304.218 -186.08)" opacity="0.1"/>
    <path id="Path_87" data-name="Path 87" d="M634.293,392.146a3.9,3.9,0,0,1,.065,2.676,1.083,1.083,0,0,1-.471.515,1.218,1.218,0,0,1-.542.076,5.417,5.417,0,0,1-3.57-1.766,16.118,16.118,0,0,1-2.318-3.348c-.7-1.23-1.436-2.589-1.181-3.987.276-1.522,1.625-2.579,2.936-3.434,2.627-1.733,2.709.287,3.288,2.519S633.687,389.893,634.293,392.146Z" transform="translate(-303.882 -186.08)" fill="#6c63ff"/>
    <path id="Path_88" data-name="Path 88" d="M623.85,316.047l1.322-2.237-1.154,4.155Z" transform="translate(-285.914 -143.816)" opacity="0.1"/>
    <path id="Path_89" data-name="Path 89" d="M721.19,376.029l3.05,1.381,1.295-9.355-2.941-1.625C724.624,368.759,722.848,373.066,721.19,376.029Z" transform="translate(-347.404 -178.842)" opacity="0.1"/>
    <path id="Path_90" data-name="Path 90" d="M731.92,362.336s-9.848.6-14.03-2.086" transform="translate(-345.892 -176.009)" opacity="0.1"/>
    <g id="Group_8" data-name="Group 8" transform="translate(342.876 137.345)" opacity="0.1">
      <path id="Path_91" data-name="Path 91" d="M737.818,329.728a27.722,27.722,0,0,1,4.946-6.419,13.213,13.213,0,0,1,1.457-.791l15.352-3.153.888-.2s.135-29.983-10.477-34.1a63.769,63.769,0,0,1-16.555-9.323l1.165-.358a61.908,61.908,0,0,0,16.982,9.68c10.617,4.112,10.477,34.1,10.477,34.1h-1.593l-15.709,3.006s-.677.655-.883.845a30.445,30.445,0,0,0-5.022,6.641,16.652,16.652,0,0,0-1.316,12.589h-1.625A16.559,16.559,0,0,1,737.818,329.728Z" transform="translate(-695.89 -274.464)"/>
      <path id="Path_92" data-name="Path 92" d="M664.13,277.913c.255-.038.5-.076.764-.1a27.47,27.47,0,0,0,3.25.265A29.537,29.537,0,0,1,664.13,277.913Z" transform="translate(-664.13 -275.573)"/>
      <path id="Path_93" data-name="Path 93" d="M697.478,279.113l-9.718-4.919a5.136,5.136,0,0,0,.542-.515l10.141,5.13Z" transform="translate(-674.96 -273.68)"/>
    </g>
    <path id="Path_94" data-name="Path 94" d="M748.422,340l6.5,7.963,1.327,21.625s1.723,11.007-10.877,8.353-27.183-10.856-27.183-10.856,7.042-9.42,3.185-13l18.044,5.84s3.05-.666.661-3.315-2.811-7.432-2.811-7.432Z" transform="translate(-346.029 -166.729)" fill="#6c63ff"/>
    <path id="Path_95" data-name="Path 95" d="M779.42,382.17,783,386.282A5.162,5.162,0,0,1,779.42,382.17Z" transform="translate(-374.091 -186.055)" opacity="0.1"/>
    <path id="Path_96" data-name="Path 96" d="M736.99,360.8l5.574,7.161-2.784.666Z" transform="translate(-337.766 -165.351)" opacity="0.1"/>
    <path id="Path_97" data-name="Path 97" d="M665.342,198.655a5.715,5.715,0,0,1,.6-4.664,36.846,36.846,0,0,0,2.3-4.274c.818-2.264.569-4.827,1.463-7.042,1.576-3.927,6.056-5.682,10.07-7.042a6.771,6.771,0,0,1,3.662-.5c1.625.385,2.681,1.858,4.009,2.849,5.45,4.063,14.312-.412,19.583,3.889a10.25,10.25,0,0,1,3.3,6.869,60.636,60.636,0,0,1-.033,7.811c-.087,4.561.769,9.55,4.182,12.573,1.029.91,2.243,1.593,3.25,2.535a4.438,4.438,0,0,1,1.625,3.624,12.573,12.573,0,0,1-.542,1.842c-.677,2.378.336,4.875,1.571,7.042,3.684,6.376,10.179,11.63,17.54,11.777-.493,3.716-4.334,5.872-7.773,7.394-4.334,1.945-8.949,3.852-13.721,3.608s-9.751-3.3-10.585-8c-.287-1.625-.249-3.581-1.625-4.426-.845-.515-1.939-.385-2.849-.769-1.316-.542-1.966-2.021-2.4-3.38a30.424,30.424,0,0,1-1.414-8.667c-.06-3.489.4-7.3-1.576-10.168-1.831-2.66-5.081-4.009-7.194-6.452-1.95-2.264-4.068-4.995-7.264-5.417C677.1,199.045,667.953,205.053,665.342,198.655Z" transform="translate(-321.68 -91.125)" opacity="0.1"/>
    <path id="Path_98" data-name="Path 98" d="M665.342,197.185a5.715,5.715,0,0,1,.6-4.664,36.846,36.846,0,0,0,2.3-4.274c.818-2.264.569-4.827,1.463-7.042,1.576-3.933,6.056-5.688,10.07-7.042a6.771,6.771,0,0,1,3.662-.5c1.625.385,2.681,1.858,4.009,2.849,5.45,4.063,14.312-.412,19.583,3.889a10.251,10.251,0,0,1,3.3,6.874,60.548,60.548,0,0,1-.033,7.806c-.087,4.561.769,9.55,4.182,12.573,1.029.91,2.243,1.593,3.25,2.535a4.438,4.438,0,0,1,1.625,3.624,12.573,12.573,0,0,1-.542,1.842c-.677,2.378.336,4.875,1.571,7.042,3.694,6.354,10.162,11.625,17.524,11.771-.493,3.716-4.334,5.872-7.773,7.4-4.334,1.939-8.949,3.846-13.721,3.6s-9.751-3.3-10.585-8c-.287-1.625-.249-3.581-1.625-4.426-.845-.515-1.939-.385-2.849-.769-1.316-.542-1.966-2.021-2.4-3.38a30.391,30.391,0,0,1-1.414-8.667c-.06-3.489.4-7.3-1.576-10.168-1.831-2.66-5.081-4.009-7.194-6.452-1.95-2.264-4.068-4.995-7.264-5.417C677.1,197.575,667.953,203.593,665.342,197.185Z" transform="translate(-321.68 -90.451)" fill="#585268"/>
    <path id="Path_99" data-name="Path 99" d="M685.144,285.029l9.81-7.963s-6.717-3.64-7.519-6.744-6.175,1.473-5.628,4.258S685.144,285.029,685.144,285.029Z" transform="translate(-329.337 -134.319)" opacity="0.1"/>
    <path id="Path_100" data-name="Path 100" d="M685.882,282.823l9.81-7.958s-6.717-3.64-7.486-6.744-6.175,1.473-5.628,4.258S685.882,282.823,685.882,282.823Z" transform="translate(-329.69 -133.311)" fill="#6c63ff"/>
    <circle id="Ellipse_15" data-name="Ellipse 15" cx="0.78" cy="0.78" r="0.78" transform="translate(365.606 147.437)" opacity="0.1"/>
    <circle id="Ellipse_16" data-name="Ellipse 16" cx="0.78" cy="0.78" r="0.78" transform="translate(365.606 151.771)" opacity="0.1"/>
    <circle id="Ellipse_17" data-name="Ellipse 17" cx="0.78" cy="0.78" r="0.78" transform="translate(365.606 156.099)" opacity="0.1"/>
    <g id="Group_9" data-name="Group 9" transform="translate(343.504 89.009)" opacity="0.1">
      <path id="Path_101" data-name="Path 101" d="M672.028,191.113c.775-2.129.607-4.518,1.333-6.663a7.278,7.278,0,0,0-.829,1.528c-.9,2.237-.645,4.8-1.468,7.042l-.054.13a12.381,12.381,0,0,0,1.018-2.037Z" transform="translate(-667.91 -184.45)"/>
      <path id="Path_102" data-name="Path 102" d="M731.3,254.823c-4.334,1.939-8.949,3.846-13.721,3.6s-9.751-3.3-10.585-8c-.287-1.625-.249-3.586-1.625-4.431-.845-.515-1.939-.385-2.849-.769-1.316-.542-1.966-2.021-2.4-3.38a30.391,30.391,0,0,1-1.414-8.667c-.06-3.483.406-7.291-1.571-10.168-1.836-2.66-5.087-4-7.2-6.452-1.95-2.259-4.068-4.995-7.264-5.417-4.382-.6-13.543,5.417-16.132-.986a5.038,5.038,0,0,1,.168-3.7c-.19.32-.374.639-.542.964a5.738,5.738,0,0,0-.591,4.669c2.606,6.392,11.75.385,16.132.986,3.2.433,5.314,3.169,7.264,5.417,2.113,2.449,5.363,3.792,7.194,6.457,1.983,2.871,1.517,6.679,1.576,10.162a30.391,30.391,0,0,0,1.414,8.667c.433,1.365,1.083,2.828,2.4,3.38.91.385,2,.26,2.849.769,1.4.845,1.36,2.822,1.625,4.431.845,4.7,5.818,7.752,10.585,8s9.361-1.658,13.721-3.6c3.142-1.4,6.641-3.331,7.584-6.5C736.409,252.315,733.744,253.734,731.3,254.823Z" transform="translate(-665.288 -194.537)"/>
    </g>
    <path id="Path_103" data-name="Path 103" d="M876.034,300.694c-11.468-6.6-15.8-8.223-15.823-8.223l-.238-.168a9.539,9.539,0,0,1-2.887-3.651,7.611,7.611,0,0,1,0-.785.335.335,0,0,0,0,.076c.179-3.494,2.665-6.674,5.022-9.447l6.029-7.091a6.988,6.988,0,0,0,1.555-2.459,5.675,5.675,0,0,0,.162-1.511v-.618c-.032-1.761-.081-3.526-.146-5.287-.054-1.538-.45-3.478-1.988-3.792-.8-.163-1.863.125-2.286-.542a1.316,1.316,0,0,1-.1-.915.309.309,0,0,0,0,.076v-.087a20.4,20.4,0,0,0,.569-3.624,4.939,4.939,0,0,0-.249-1.836c-.888-2.551-3.96-3.6-6.674-4.084s-5.758-.894-7.459-3.017a22.08,22.08,0,0,0-1.484-2.042,5.856,5.856,0,0,0-2.773-1.37,15.709,15.709,0,0,0-10.092.878c-1.311.585-2.627,1.376-4.068,1.289s-2.774-1.127-4.247-1.376c-2.383-.406-4.664,1.343-5.84,3.418a8.358,8.358,0,0,0-1.083,4.03v.238h0a5.894,5.894,0,0,0,1.549,4.117c1.029,1.083,2.557,1.8,2.985,3.2.173.569.13,1.186.287,1.766a1.586,1.586,0,0,0,.065.211l-.076.1a17.876,17.876,0,0,0-3.792,11.018A18.288,18.288,0,0,0,835.8,286.523c0,.179,0,.358,0,.542a7.793,7.793,0,0,1-2.492,6.067l-16.246,6.49s-9.794-1.165-13.326,13.147a24.4,24.4,0,0,0-.607,7.259,21.042,21.042,0,0,1-2.709,10.872c-4.014,7.866-3.1,25.921,5.114,27.708,7.752,1.69,10.785.986,11.1.9v.314c-.13,3.391-1.36,32.611-5.829,36.142-1.235.98-1.008,1.625,0,2.086,0,0,0,.19-.027.542-.135,2.167-.823,10.292-3.792,14.908-3.472,5.363-3.109,36.294-3.109,36.294l-2.367,18.234s1.457,11.262,0,13.228c-1.306,1.75-3.039,43.412-3.4,52.448h-.152a4.4,4.4,0,0,0-3.51,2.167c-1.918,3.115-8.635,8.873-8.635,8.873-1.457,2.069-6.847,4.052-9.7,4.984a6.027,6.027,0,0,0-1.083.477,5.781,5.781,0,0,0-2.448,2.579,2.768,2.768,0,0,0-.26,2.167c.726,1.782,15.877,3.039,19.713,1.246,3.012-1.4,14.951-3.25,19.908-3.976a4.084,4.084,0,0,0,3.543-3.543,2.335,2.335,0,0,0-.455-1.771h0c-.948-1.175-1.43-4.388-1.625-6.5a4.393,4.393,0,0,0,1.116-.661,47.589,47.589,0,0,1,2.709-19.128c3.651-9.653,4.745-27.529,3.835-39.149,0,0,11.132-47.908,19.9-52.377h0c.135.173,4.388,5.628,4.93,22.524.542,17.161,6.75,28.423,6.75,28.423s-2.741,29.138,0,40.043l-3.581,17.2c-.265-.222-.433-.4-.433-.4s.108.477.255,1.24l-.076.368.157.032a33.857,33.857,0,0,1,.758,8.126c-.141,1.251-.493,2.969-.731,4.653-.379,2.649-.482,5.217.91,5.78,2.286.921,15.709,2.167,17.985-.78a4.22,4.22,0,0,0,.661-4.415,4.469,4.469,0,0,0-.661-1.127s-3.565-5.823-2.557-9.929a3.023,3.023,0,0,0-.428-2.356,121.119,121.119,0,0,1,3.072-19.263c2.286-8.6,7.1-27.464,3.559-39.864h0q-.2-.731-.455-1.43a53.539,53.539,0,0,1-2.01-20.915,42.627,42.627,0,0,1,0-18.234c2.194-10.011,3.727-19.843,3.727-19.843s1.208-13.228.152-21.338a5.335,5.335,0,0,0-.07-.542l.574-.13s-3.1-13.765-4.2-22.524c-.26-2.069-.6-4.686-.964-7.481a19.093,19.093,0,0,0,2.974-.742c9.854-3.4,12.958-34.127,12.958-34.127V322.3S887.535,307.308,876.034,300.694ZM802.6,538.09c-.3-.152-.482-.255-.482-.255h0Z" transform="translate(-370.788 -120.825)" fill="url(#linear-gradient-3)"/>
    <path id="Path_104" data-name="Path 104" d="M892.583,605.8c4.274,12.291-.715,32.242-3.033,41.169a124.456,124.456,0,0,0-3.028,19.6,41.273,41.273,0,0,1-15.677-.357l3.743-18.348c-2.676-10.867,0-39.907,0-39.907s-6.056-11.224-6.593-28.326c-.542-16.831-4.675-22.275-4.8-22.443h0c-8.548,4.453-19.415,52.2-19.415,52.2.888,11.576-.184,29.393-3.743,39a48.213,48.213,0,0,0-2.671,19.057c-1.246,1.083-2.979,1.235-4.875.932-5.087-.823-11.186-5.206-11.186-5.206s1.956-52,3.386-53.975,0-13.185,0-13.185L827,577.843s-.357-30.823,3.028-36.164c2.925-4.615,3.6-12.73,3.727-14.859v-.542l5.157-6.175s49.88-3.743,53.629,0c.915.915,1.484,3.006,1.82,5.634,1.029,8.082-.152,21.262-.152,21.262s-1.5,9.8-3.635,19.772a43.4,43.4,0,0,0,0,18.174A54.4,54.4,0,0,0,892.583,605.8Z" transform="translate(-393.284 -248.507)" fill="#65617d"/>
    <path id="Path_105" data-name="Path 105" d="M931.218,805.273c-2.226,2.941-15.319,1.7-17.551.78-1.36-.542-1.257-3.126-.888-5.764.233-1.674.574-3.386.715-4.632.352-3.207-1.083-9.713-1.083-9.713s2.936,3.12,3.646,0a3.4,3.4,0,0,1,2.546-2.416,6.652,6.652,0,0,1,4.626.287c2.313,1.008,6.17,3.147,5.482,6.04-.98,4.09,2.492,9.9,2.492,9.9a4.507,4.507,0,0,1,.65,1.116,4.274,4.274,0,0,1-.634,4.4Z" transform="translate(-435.039 -369.866)" fill="#a27772"/>
    <path id="Path_106" data-name="Path 106" d="M931.327,819.694c-2.226,2.942-15.319,1.7-17.551.78-1.36-.542-1.257-3.126-.888-5.764,1.408.661,3.792,1.208,7.784.84a21.954,21.954,0,0,1,2.8-.087,65.14,65.14,0,0,0,8.5-.173A4.274,4.274,0,0,1,931.327,819.694Z" transform="translate(-435.149 -384.287)" opacity="0.1"/>
    <path id="Path_107" data-name="Path 107" d="M853.229,639.218c.888,11.576-.184,29.393-3.743,39a48.212,48.212,0,0,0-2.671,19.057c-1.246,1.083-2.979,1.235-4.875.932,1.083-7.513,5.655-39.886,8.586-65.465a107.123,107.123,0,0,1,18.96-49.165l3.115,3.429C864.1,591.473,853.229,639.218,853.229,639.218Z" transform="translate(-402.743 -278.361)" opacity="0.1"/>
    <path id="Path_108" data-name="Path 108" d="M906.544,322.566l-2.167,10.688-10.655,17.9-13.136-5.612s-17.876-18.705-6.636-21.376a9.945,9.945,0,0,0,3.727-1.658,7.707,7.707,0,0,0,2.909-6.446,19.762,19.762,0,0,0-1.809-7.66l22.979-7.215a36.887,36.887,0,0,0-1.625,9.306c-.179,6.262,2.167,9.344,4.057,10.834A6.9,6.9,0,0,0,906.544,322.566Z" transform="translate(-415.712 -148.942)" fill="#fbbebe"/>
    <path id="Path_109" data-name="Path 109" d="M908.957,301.19a36.881,36.881,0,0,0-1.625,9.306,17.484,17.484,0,0,1-1.338,1.425,18.18,18.18,0,0,1-18.169,4.144,19.763,19.763,0,0,0-1.826-7.66Z" transform="translate(-422.936 -148.942)" opacity="0.1"/>
    <path id="Path_110" data-name="Path 110" d="M902.5,280.389a18.088,18.088,0,1,1-5.3-12.872A18.174,18.174,0,0,1,902.5,280.389Z" transform="translate(-413.839 -131.082)" fill="#fbbebe"/>
    <path id="Path_111" data-name="Path 111" d="M906.544,339.591l-2.167,10.688-10.655,17.9-13.136-5.612s-17.876-18.705-6.636-21.376a9.945,9.945,0,0,0,3.727-1.658c-2.026,5.569,6.338,17.156,6.338,17.156.975,1.436,3.207.542,3.207.542,5.39-.818,15.309-16.316,16.928-18.895a6.9,6.9,0,0,0,2.394,1.251Z" transform="translate(-415.712 -165.968)" opacity="0.1"/>
    <path id="Path_112" data-name="Path 112" d="M904.957,525.738c-3.164.721-20.666,4.594-27.3,3.624-7.3-1.083-21.5-1.777-21.5-1.777s-9.041.488-11.825-.785v-.542l5.157-6.175s49.88-3.743,53.629,0C904.053,521.02,904.622,523.111,904.957,525.738Z" transform="translate(-403.839 -248.497)" opacity="0.1"/>
    <path id="Path_113" data-name="Path 113" d="M861.652,357.371s-9.4-13-5.856-18.093l-15.877,6.5s-9.556-1.159-13,13.1a24.813,24.813,0,0,0-.59,7.237,21.412,21.412,0,0,1-2.617,10.834c-3.917,7.838-3.028,25.834,4.989,27.627s10.861.888,10.861.888-1.083,32.6-5.7,36.343,11.809,2.849,11.809,2.849,14.2.715,21.506,1.782,27.789-3.743,27.789-3.743-3.028-13.716-4.1-22.443-3.57-27.318-3.57-27.318l18.169-24.615s3.207-14.875-8.017-21.468S882,338.65,882,338.65s-11.278,18.364-17.156,19.252C864.859,357.9,862.627,358.8,861.652,357.371Z" transform="translate(-393.355 -166.11)" fill="#6c63ff"/>
    <path id="Path_114" data-name="Path 114" d="M854.618,382.74s-.173,5.883.894,8.2S860.5,406.1,860.5,406.1H851.59s4.81-5.168,4.458-7.665S854.618,382.74,854.618,382.74Z" transform="translate(-407.166 -186.316)" opacity="0.1"/>
    <path id="Path_115" data-name="Path 115" d="M881.841,443.507s-19.675-4.81-21.506-8.906-6.885-13.266-6.885-13.266l2.075-2.8,9.567,7.508s11.376,9.084,16.749,9.978S881.841,443.507,881.841,443.507Z" transform="translate(-408.018 -202.723)" fill="#fbbebe"/>
    <path id="Path_116" data-name="Path 116" d="M881.841,443.507s-19.675-4.81-21.506-8.906-6.885-13.266-6.885-13.266l2.075-2.8,9.567,7.508s11.376,9.084,16.749,9.978S881.841,443.507,881.841,443.507Z" transform="translate(-408.018 -202.723)" opacity="0.05"/>
    <path id="Path_117" data-name="Path 117" d="M907.191,421.78v10.672h-1.712a49.884,49.884,0,0,0-24.234,6.278l-3.209,1.777-.861.482-5.525-12.459,5.168-4.632h.265c1.262.125,6.728.58,9.046-.2,2.2-.748,4.93-3.115,11.408-1.463,3.191.818,5.921,4.393,9.014,3.277Z" transform="translate(-416.359 -204.154)" fill="#fbbebe"/>
    <path id="Path_118" data-name="Path 118" d="M936.181,375.755l3.559,4.009v9.713S936.712,420.115,927.1,423.5,900.3,421.54,900.3,421.54s-4.437-11.755-2.362-12.459,18.337-5.005,18.337-5.005-.228-17.974,3.332-23.32c0,0-2.313-16.744,5.7-17.1S936.181,375.755,936.181,375.755Z" transform="translate(-428.156 -177.566)" opacity="0.1"/>
    <path id="Path_119" data-name="Path 119" d="M937.184,375.755l3.564,4.009v9.713S937.72,420.115,928.1,423.5s-26.793-1.961-26.793-1.961-4.437-11.755-2.356-12.459,18.337-5.005,18.337-5.005-.233-17.974,3.331-23.32c0,0-2.319-16.744,5.7-17.1S937.184,375.755,937.184,375.755Z" transform="translate(-428.617 -177.566)" fill="#6c63ff"/>
    <path id="Path_120" data-name="Path 120" d="M900.659,288.048a7.162,7.162,0,0,0-.406-3.472,2.644,2.644,0,0,0-2.828-1.625c-1.522.358-2.167,2.34-3.673,2.817a2.935,2.935,0,0,1-3.25-1.668,8.311,8.311,0,0,1-.618-3.879v-4.464c0-1.625-.054-3.369-1.051-4.642-1.24-1.582-4.16-2.275-6.11-2.21a5.184,5.184,0,0,0-3.489,1.4,4.49,4.49,0,0,1-3.667,1.306,3.158,3.158,0,0,1-2.557-2.21v-.054a18.169,18.169,0,1,1,27.009,24.117,48.984,48.984,0,0,0,.639-5.417Z" transform="translate(-416.982 -131.028)" opacity="0.1"/>
    <path id="Path_121" data-name="Path 121" d="M871.582,261.76a3.185,3.185,0,0,1-2.562-2.216c-.146-.574-.108-1.186-.276-1.755-.417-1.4-1.912-2.129-2.914-3.2-2-2.129-1.874-5.628-.455-8.191,1.148-2.064,3.369-3.792,5.7-3.4,1.441.249,2.709,1.273,4.149,1.371s2.709-.7,3.971-1.284a14.962,14.962,0,0,1,9.87-.878,5.688,5.688,0,0,1,2.709,1.371,23.68,23.68,0,0,1,1.446,2.031c1.658,2.113,4.632,2.53,7.281,3.006s5.645,1.528,6.5,4.074c.58,1.69,0,3.521-.314,5.276a1.593,1.593,0,0,0,.07,1.083c.417.683,1.452.4,2.232.542,1.5.32,1.885,2.253,1.945,3.792q.092,2.633.141,5.271a6.714,6.714,0,0,1-.157,1.95,6.886,6.886,0,0,1-1.511,2.454l-5.883,7.069c-2.611,3.131-5.379,6.782-4.875,10.834-1.235.542-2.708-.515-3.109-1.809a8.093,8.093,0,0,1,.2-4.014,49.214,49.214,0,0,0,.943-6.961,7.14,7.14,0,0,0-.406-3.467,2.644,2.644,0,0,0-2.828-1.625c-1.528.358-2.167,2.34-3.673,2.817a2.935,2.935,0,0,1-3.25-1.668,8.288,8.288,0,0,1-.618-3.873v-4.469c0-1.625-.054-3.369-1.051-4.642-1.24-1.582-4.16-2.275-6.11-2.21a5.184,5.184,0,0,0-3.483,1.4A4.5,4.5,0,0,1,871.582,261.76Z" transform="translate(-412.997 -121.701)" fill="#7c5c5c"/>
    <path id="Path_122" data-name="Path 122" d="M885.3,381.92l5.58,22.919S895.278,404.812,885.3,381.92Z" transform="translate(-422.615 -185.941)" opacity="0.1"/>
    <path id="Path_123" data-name="Path 123" d="M916.165,374.85s-7.3,11.961-4.453,24.333l1.36.1S910.645,393.555,916.165,374.85Z" transform="translate(-434.417 -182.7)" opacity="0.1"/>
    <path id="Path_124" data-name="Path 124" d="M929,499.282s8.971-2.969,9.621,3.917C938.642,503.2,936.952,498.48,929,499.282Z" transform="translate(-442.643 -239.435)" opacity="0.1"/>
    <path id="Path_125" data-name="Path 125" d="M868.216,426.81s-1.782,12.459,1.425,17.459a39.071,39.071,0,0,1-15.677,2.14l-1.083-19.6Z" transform="translate(-407.757 -206.514)" opacity="0.1"/>
    <path id="Path_126" data-name="Path 126" d="M878.037,442.4l-.861.482-5.525-12.459,5.168-4.632h.265C877,426.408,875.561,437.117,878.037,442.4Z" transform="translate(-416.359 -206.046)" opacity="0.1"/>
    <path id="Path_127" data-name="Path 127" d="M863.857,425.83s-1.782,12.459,1.425,17.454a38.956,38.956,0,0,1-15.677,2.14L843.37,425.83Z" transform="translate(-403.399 -206.064)" fill="#6c63ff"/>
    <path id="Path_128" data-name="Path 128" d="M817.011,797.3a4.036,4.036,0,0,1-3.462,3.532c-4.837.72-16.489,2.562-19.431,3.965-3.743,1.782-18.526.542-19.241-1.246a2.828,2.828,0,0,1,.255-2.167,5.71,5.71,0,0,1,2.389-2.568,6.342,6.342,0,0,1,1.083-.477c2.784-.926,8.044-2.9,9.464-4.967,0,0,6.56-5.737,8.429-8.835a4.279,4.279,0,0,1,3.424-2.134c1.56-.07,3.3.715,4.014,4.133,0,0,8.543,4.875,10.834.6,0,0,.358,6.565,1.777,8.364h0a2.384,2.384,0,0,1,.466,1.8Z" transform="translate(-371.959 -369.48)" fill="#a27772"/>
    <path id="Path_129" data-name="Path 129" d="M817.011,808.388a4.036,4.036,0,0,1-3.462,3.532c-4.837.721-16.489,2.562-19.431,3.965-3.743,1.782-18.526.542-19.241-1.246a2.828,2.828,0,0,1,.255-2.167,5.71,5.71,0,0,1,2.389-2.568c2.411,1.625,7.763,3.164,19.534,1.327,11.23-1.755,16.793-3.472,19.5-4.642h0a2.384,2.384,0,0,1,.455,1.8Z" transform="translate(-371.959 -380.565)" opacity="0.1"/>
    <g id="Group_10" data-name="Group 10" transform="translate(451.301 128.472)" opacity="0.1">
      <path id="Path_130" data-name="Path 130" d="M942.438,268.653v-.087a15.952,15.952,0,0,0,.542-4.047,26.72,26.72,0,0,1-.542,3.25A1.972,1.972,0,0,0,942.438,268.653Z" transform="translate(-900.079 -260.609)"/>
      <path id="Path_131" data-name="Path 131" d="M896.248,282.018a5.151,5.151,0,0,1,.439,2.037,6.143,6.143,0,0,0-.439-2.839,2.633,2.633,0,0,0-2.822-1.625c-1.528.358-2.167,2.34-3.678,2.817a2.942,2.942,0,0,1-3.25-1.668,8.242,8.242,0,0,1-.618-3.879V272.4c0-1.625-.054-3.369-1.051-4.642-1.246-1.587-4.16-2.275-6.11-2.216a5.19,5.19,0,0,0-3.489,1.408,4.5,4.5,0,0,1-3.673,1.306,3.174,3.174,0,0,1-2.557-2.21c-.146-.574-.108-1.192-.276-1.761-.417-1.4-1.912-2.129-2.914-3.191a5.834,5.834,0,0,1-1.5-3.792,6.073,6.073,0,0,0,1.5,4.567c1,1.083,2.5,1.793,2.914,3.191.168.542.13,1.186.276,1.761a3.174,3.174,0,0,0,2.557,2.21,4.5,4.5,0,0,0,3.673-1.306,5.19,5.19,0,0,1,3.489-1.408c1.95-.06,4.875.628,6.11,2.216,1,1.273,1.046,3.023,1.051,4.642v4.464a8.2,8.2,0,0,0,.618,3.873,2.949,2.949,0,0,0,3.25,1.674c1.5-.477,2.167-2.459,3.678-2.817A2.736,2.736,0,0,1,896.248,282.018Z" transform="translate(-864.285 -257.3)"/>
      <path id="Path_132" data-name="Path 132" d="M939.924,292.9a6.848,6.848,0,0,1-1.517,2.449l-5.883,7.069c-2.476,2.974-5.092,6.419-4.875,10.217.179-3.483,2.606-6.652,4.875-9.415l5.883-7.069a6.846,6.846,0,0,0,1.517-2.448,6.76,6.76,0,0,0,.157-1.956,5.144,5.144,0,0,1-.157,1.154Z" transform="translate(-893.319 -273.088)"/>
      <path id="Path_133" data-name="Path 133" d="M921.835,327.3a4.164,4.164,0,0,1-.179-.953,4.8,4.8,0,0,0,.179,1.755c.4,1.289,1.869,2.356,3.109,1.8a7.6,7.6,0,0,1-.065-.78C923.644,329.622,922.214,328.571,921.835,327.3Z" transform="translate(-890.57 -288.945)"/>
    </g>
    <path id="Path_134" data-name="Path 134" d="M812.69,789.36s1.863,3.25,8.613.39" transform="translate(-389.338 -372.669)" opacity="0.1"/>
    <path id="Path_135" data-name="Path 135" d="M918,790.82s5.818,6.853,13.153,2.248" transform="translate(-437.601 -373.338)" opacity="0.1"/>
    <path id="Path_136" data-name="Path 136" d="M945.667,641.23s-4.112,2.568-4.242,4.036,2.123-1.083,2.123-1.083Z" transform="translate(-448.335 -304.781)" opacity="0.1"/>
    <path id="Path_137" data-name="Path 137" d="M946.015,677.59a8.6,8.6,0,0,1-5.065,1.977c-3.077.135-2.817,4.144-.807,2.941A50.417,50.417,0,0,0,946.015,677.59Z" transform="translate(-447.058 -321.445)" opacity="0.1"/>
    <path id="Path_138" data-name="Path 138" d="M950.675,682.34s-1.972,9.691-3.575,7.822" transform="translate(-450.938 -323.622)" opacity="0.1"/>
    <path id="Path_139" data-name="Path 139" d="M245.459,547.618s12.378,3.4,18.337-1.121,8.543-3.066,8.543-3.066,14.209-.785,15.379-4.144-5.45-15.558-5.45-15.558c-.471-1.083-1.159-2.459-1.468-2.459l.065-5.146h0l2.058-21.533c4.751-12.183.087-27.925.087-27.925l-.85-3.906a9.881,9.881,0,0,1,.807-6.5l8.629-17.335a25.939,25.939,0,0,1,1.625-3.326c.542-.991,1.262-2.216,2.167-3.684.265-.423.542-.861.845-1.322,1.046-1.625,2.313-3.467,3.846-5.59,3.819-5.292,5.829-11.917,6.869-16.793l.46,1.528h.1l.125.027h.206l.222.038h.081l2.654,33.781c.163,13.174,5,20.466,5,20.466l-.666,29.084c.91,7-1.083,16.343-2,20.07l-2.091,4.718a5.671,5.671,0,0,0-3.082,4.29c-.412,3.483-4.079,10.991-4.079,10.991-1.419,1.8-4.5,6.658-4.5,6.658s-1.452,4.691-.553,6.446,8.418,1.576,8.418,1.576c8.586,1.9,15.168-2.709,14.751-5.883s1.338-3.982,1.338-3.982c3.413-1.083,3.082-3.4,3.082-3.4a21.256,21.256,0,0,0-2.584-13.835l-.542,1.251a19.052,19.052,0,0,1,1.029-7.383l-.314.217-.1.06h-.033c.542-4.751,5.531-13.543,5.531-13.543,9.166-16.078,5.834-37.865,5.834-37.865l-1.419-6.793-.081-2.562a85.518,85.518,0,0,1,1.381-18.255c.493-2.665,1-5.883,1.392-9.431a83.358,83.358,0,0,1,4.7-18.51l.363-.065h.043c.5-.087,1-.173,1.511-.271h.1s.293-1.582.542-4.274c.146-1.717.265-3.895.265-6.4A71.978,71.978,0,0,0,340.62,374.7l.276-.4s.655-.888,1.853-2.427h0c2.2-2.8,5.623-7.042,9.843-11.831,7.557-8.618,5.336-17.335,5.336-17.335s-5.471-20.048-7.909-32.085a36.488,36.488,0,0,0-6-14.274,28.408,28.408,0,0,0,.758-5.785c.163-3.564.038-7.28-1.566-10.482s-5.016-5.731-8.581-5.3a3.283,3.283,0,0,1-1.538,0,2.34,2.34,0,0,1-1.013-.883c-2.086-2.876-2.221-6.744-1.571-10.233s1.983-6.825,2.578-10.325.325-7.383-1.9-10.157c-2.616-3.25-7.178-4.166-10.579-6.609-2.389-1.717-4.182-4.182-6.7-5.7s-4.875-.943-7.611-.368c-4.6.97-8.971,1.414-13.32,3.391a35.476,35.476,0,0,0-11.609,8.445,11.019,11.019,0,0,0-2.589,4.084c-1.083,3.581,1.035,7.394.59,11.1-.314,2.627-1.863,4.913-3.093,7.259s-2.167,5.13-1.2,7.584c1.517,3.835,6.463,4.648,10.059,6.69a3.072,3.072,0,0,1,1.192,1.035c.888,1.549-.926,3.158-2.069,4.534a6.831,6.831,0,0,0-1.354,2.752,9.816,9.816,0,0,0-5.888,7.107c-1.219,5.455.655,12.34,2.308,16.89-1.8,10.135.542,14.133,2.27,15.666a8.694,8.694,0,0,1,3.012,5.926v.19c.114,1.842.309,3.678.569,5.509h0c-.06-.428-.119-.883-.152-1.083-1.414,2.616-4.106,9.3-5.623,20.547a61.747,61.747,0,0,1-1.371,7.156,39.133,39.133,0,0,0-1.148,12.8l.271,3.646a1.148,1.148,0,0,1-.737-.244l1.9,3.483v5.878a21.668,21.668,0,0,1-1.441,7.752c-.135.358-.282.715-.439,1.083a6.305,6.305,0,0,0-.639,3.191c-4.09,6.268-13.467,41.392-13.467,41.392-5.087,11.517.417,18.96.417,18.96s2.665,32.063,3.164,33.721,1.6,21.2,1.6,21.2h0v1.555a3.645,3.645,0,0,0-.926-.265c-4.458-.249-5.666,6.793-5.666,6.793l-9.122,8.711s-4.166-.7-10.292,3.895S245.459,547.618,245.459,547.618Zm91.087-185.311-.027-.1-.249.146h0l-.1.06-.049.033h0l-4.2-14.837a24.637,24.637,0,0,1-.309-12.2l3.25-14.236h0v-3.424l10.33,27.529C345.848,348.986,339.71,357.973,336.547,362.306Z" transform="translate(-126.659 -116.268)" fill="url(#linear-gradient-4)"/>
    <path id="Path_140" data-name="Path 140" d="M398.884,557s-4.171,10.146-5.233,19.88c-.385,3.51-.883,6.685-1.371,9.317a85.144,85.144,0,0,0-1.333,18.022l.081,2.53,1.354,6.7s3.25,21.522-5.726,37.378c0,0-5.32,9.5-5.482,13.992l-3.6,1.392-7.28-2.042s3.516-12.605,2.373-21.441l.655-28.71s-4.729-7.183-4.892-20.184l-2.779-35.677Z" transform="translate(-184.461 -266.179)" fill="#fdc2cc"/>
    <path id="Path_141" data-name="Path 141" d="M325.916,547.62s-.894,13.911-7.773,23.5-8.342,13.748-8.342,13.748L301.328,602a9.81,9.81,0,0,0-.8,6.408l.834,3.857s4.583,15.547-.081,27.578l-2.21,23.239H286.15s-1.083-19.312-1.555-20.948-3.109-33.3-3.109-33.3-5.417-7.367-.412-18.738c0,0,11.295-42.551,14.317-41.814S325.916,547.62,325.916,547.62Z" transform="translate(-144.728 -261.88)" fill="#fdc2cc"/>
    <g id="Group_11" data-name="Group 11" transform="translate(153.036 285.74)" opacity="0.1">
      <path id="Path_142" data-name="Path 142" d="M315.971,612.289l-.829-3.857a9.751,9.751,0,0,1,.791-6.435l8.472-17.145s1.468-4.171,8.342-13.748c6.6-9.209,7.692-22.4,7.768-23.418l1.316-.065s-.894,13.911-7.773,23.5-8.342,13.748-8.342,13.748L317.244,602a9.81,9.81,0,0,0-.8,6.408l.834,3.857s4.583,15.547-.081,27.578l-2.21,23.239H313.68l2.21-23.239C320.554,627.808,315.971,612.289,315.971,612.289Z" transform="translate(-313.68 -547.62)"/>
    </g>
    <path id="Path_143" data-name="Path 143" d="M389.331,664.837c.162-4.5,5.482-13.992,5.482-13.992,9-15.872,5.726-37.378,5.726-37.378l-1.387-6.706-.081-2.53a85.143,85.143,0,0,1,1.333-18.023c.482-2.633.98-5.807,1.365-9.317,1.024-9.371,4.93-19.122,5.217-19.837l1.343-.054s-4.171,10.146-5.233,19.88c-.385,3.51-.883,6.685-1.371,9.317a85.144,85.144,0,0,0-1.333,18.022l.081,2.53,1.354,6.7s3.25,21.522-5.726,37.378c0,0-5.32,9.5-5.482,13.992l-3.6,1.392L386.26,666Z" transform="translate(-193.907 -266.179)" opacity="0.1"/>
    <path id="Path_144" data-name="Path 144" d="M377.227,753.987a6.262,6.262,0,0,0,5.959-.737,19.231,19.231,0,0,0-.488,10.8c1.473,5.894-13.748-4.745-13.748-4.745l3.25-7.427S373.462,754.231,377.227,753.987Z" transform="translate(-185.974 -355.492)" fill="#d39999"/>
    <path id="Path_145" data-name="Path 145" d="M378.369,754.3a6.083,6.083,0,0,0,4.837-1.083,19.231,19.231,0,0,0-.488,10.8c1.473,5.894-13.748-4.745-13.748-4.745l3.25-7.427a4.644,4.644,0,0,0,3.711,2.091C376.771,754.038,377.572,754.152,378.369,754.3Z" transform="translate(-185.983 -355.478)" opacity="0.1"/>
    <path id="Path_146" data-name="Path 146" d="M289.32,450.249h6.36V414.166l-4.772-.856Z" transform="translate(-132.6 -189.417)" fill="#fdc2cc"/>
    <path id="Path_147" data-name="Path 147" d="M289.32,450.249h6.36V414.166l-4.772-.856Z" transform="translate(-132.6 -189.417)" opacity="0.05"/>
    <path id="Path_148" data-name="Path 148" d="M364.236,760.362a6.34,6.34,0,0,1,5.807,3.353l2.21,1.717,1.083-2.535a21.126,21.126,0,0,1,2.5,13.667s.325,2.286-3.028,3.353c0,0-1.717.818-1.311,3.927s-6.051,7.692-14.48,5.807c0,0-7.367.168-8.266-1.555s.574-6.3.574-6.3,3.028-4.8,4.415-6.571c0,0,3.6-7.421,4.014-10.834S362.107,758.477,364.236,760.362Z" transform="translate(-176.585 -359.083)" fill="#7e5659"/>
    <path id="Path_149" data-name="Path 149" d="M304.8,761.963l.065-5.087s-7.318,2.107-13.245-.276c0,0,.5,5.114-.325,5.813s2.741,7.28,2.741,7.28l3.982,4.171,6.847-2.492,1.858-5.85S305.288,761.963,304.8,761.963Z" transform="translate(-150.328 -357.655)" fill="#d39999"/>
    <path id="Path_150" data-name="Path 150" d="M304.8,761.963l.065-5.087s-7.318,2.107-13.245-.276c0,0,.5,5.114-.325,5.813s2.741,7.28,2.741,7.28l3.982,4.171,6.847-2.492,1.858-5.85S305.288,761.963,304.8,761.963Z" transform="translate(-150.328 -357.655)" opacity="0.1"/>
    <path id="Path_151" data-name="Path 151" d="M268.094,763.094s3.889.45,3.4,5.417.206,0,.206,0,4.133,1.674,5.607,4.009,4.133-2.086,4.334-3.353,1.858-1.793,1.858-1.793,6.5,12.053,5.352,15.368-15.1,4.079-15.1,4.079-2.541-1.43-8.391,3.028-18,1.083-18,1.083-9.9-4.133-3.884-8.667,10.1-3.846,10.1-3.846l8.96-8.635S263.717,762.845,268.094,763.094Z" transform="translate(-127.577 -360.628)" fill="#7e5659"/>
    <path id="Path_152" data-name="Path 152" d="M343.735,236.266c2.476,1.5,4.236,3.938,6.582,5.634,3.337,2.411,7.817,3.31,10.384,6.528,2.167,2.741,2.449,6.571,1.863,10.027s-1.9,6.755-2.53,10.2-.5,7.264,1.544,10.1a2.292,2.292,0,0,0,.991.872,3.25,3.25,0,0,0,1.511,0c3.5-.423,6.858,2.08,8.429,5.238s1.7,6.831,1.533,10.352a21.4,21.4,0,0,1-1.728,8.434c-2.167,4.42-6.674,7.15-11.121,9.241a86.137,86.137,0,0,1-8.879,3.586,13.362,13.362,0,0,1-6.435.97c-3.7-.639-6.322-4-9.832-5.32-2.876-1.083-6.067-.693-9.128-.423-2.611.228-5.6.222-7.394-1.685-2.308-2.449-1.268-6.4-.087-9.55a6.8,6.8,0,0,1-4.81-11.116c1.116-1.36,2.9-2.947,2.026-4.48a2.968,2.968,0,0,0-1.17-1.018c-3.527-2.015-8.386-2.822-9.87-6.6-.953-2.432-.033-5.184,1.175-7.5s2.709-4.577,3.039-7.167c.433-3.662-1.625-7.427-.58-10.959a10.986,10.986,0,0,1,2.541-4.041,34.864,34.864,0,0,1,11.376-8.337c4.274-1.956,8.559-2.394,13.077-3.348C338.952,235.334,341.195,234.728,343.735,236.266Z" transform="translate(-156.767 -118.742)" fill="#865a61"/>
    <path id="Path_153" data-name="Path 153" d="M321.46,337.755s-10.363-.542-12.324,8.293,4.252,21.489,4.252,21.489Z" transform="translate(-158.386 -165.697)" fill="#fdc2cc"/>
    <path id="Path_154" data-name="Path 154" d="M321.46,337.755s-10.363-.542-12.324,8.293,4.252,21.489,4.252,21.489Z" transform="translate(-158.386 -165.697)" opacity="0.05"/>
    <path id="Path_155" data-name="Path 155" d="M320,345.927l3.927,3.109,18.326.818L353.694,342l11.636-19.967a14.385,14.385,0,0,1-11.062-11.322,24.787,24.787,0,0,1-.228-9.458s-18.656-9.659-16.365,5.417a20.476,20.476,0,0,1,.173,5.6c-1.083,8.83-9.653,7.167-9.653,7.167l-3.288,5.07-3.765,12.459Z" transform="translate(-163.54 -147.574)" fill="#fdc2cc"/>
    <path id="Path_156" data-name="Path 156" d="M352.495,306.644a20.476,20.476,0,0,1,.173,5.6,16.538,16.538,0,0,0,16.419-1.538,24.789,24.789,0,0,1-.228-9.458S350.2,291.59,352.495,306.644Z" transform="translate(-178.343 -147.571)" opacity="0.1"/>
    <circle id="Ellipse_18" data-name="Ellipse 18" cx="16.527" cy="16.527" r="16.527" transform="translate(164.672 132.459)" fill="#fdc2cc"/>
    <path id="Path_157" data-name="Path 157" d="M329.616,360.48c.4,0,.8.06,1.192.1,2.167.217,11.219.7,16.376-5.455,5.769-6.891,13.451-15.4,13.765-15.747l7.817,2.362s-6.186-2.2-10.292,9.306a11.917,11.917,0,0,0,4.025,13.711,12.383,12.383,0,0,0,5.114,2.167.027.027,0,0,1,0,.027V372h0l-3.2,14.084a24.415,24.415,0,0,0,.3,12.053l4.875,17.232c-.737.509-30.985,21.083-51.191,6.874h0c.076-.618,2.573-20.839.84-30.736a68.349,68.349,0,0,1-.9-7.649v-.19a8.624,8.624,0,0,0-2.963-5.85c-1.82-1.625-4.285-5.959-1.847-17.41a42.069,42.069,0,0,1,2.708-8.25l6.777-15.314h0l6.246.125v.043c-.542.672-7.784,9.718-8.57,15.547C319.919,358.1,318.971,359.8,329.616,360.48Z" transform="translate(-160.106 -165.281)" fill="#6c63ff"/>
    <path id="Path_158" data-name="Path 158" d="M400.414,348.359s6.11,5.238,8.51,17.129,7.746,31.641,7.746,31.641,2.167,8.618-5.238,17.129S399.1,429.425,399.1,429.425l-4.875,7.183a6.116,6.116,0,0,1-3.51,2.481c-2.221.585-5.634,1.008-8.591-.612a5.005,5.005,0,0,1-2.167-6.322l1.083-2.508s-10.038,6.327-10.91,2.833,11.674-6.983,11.674-6.983,10.363-1.744,12.459-6.652c0,0,11.127-14.3,10.254-19.2l-10.747-28.8s-13.44-1.777-8.857-16.874S400.414,348.359,400.414,348.359Z" transform="translate(-186.496 -169.21)" fill="#fdc2cc"/>
    <path id="Path_159" data-name="Path 159" d="M307.362,517.115s24.55,4.908,30.335,4.252l.623,2.075s9.317,2.086,30.384-1.257q2.064-.325,4.285-.731l.493-.087s.287-1.56.515-4.22a73.181,73.181,0,0,0-3.57-29.707l-3.543-10.91s-21.9,13.125-36.392,11.917c-1.295-.108-2.579-.211-3.873-.255-2.974-.114-7.584,0-10.579-2.4l-6.284,1.083v17.876a21.419,21.419,0,0,1-1.419,7.649c-.135.358-.276.71-.433,1.083A5.688,5.688,0,0,0,307.362,517.115Z" transform="translate(-157.706 -229.3)" fill="#65617d"/>
    <path id="Path_160" data-name="Path 160" d="M364.58,552.241V557.8s10.726,2.4,35.162-2.075c0,0,.287-1.56.515-4.22C392.759,552.713,372.083,555.605,364.58,552.241Z" transform="translate(-183.971 -263.663)" opacity="0.1"/>
    <path id="Path_161" data-name="Path 161" d="M307.364,547.481s24.55,4.908,30.335,4.252l.623,2.075v-5.563c-2.8,1.159-22.752-3.651-29.983-5.455-.135.357-.276.71-.433,1.083a5.688,5.688,0,0,0-.542,3.608Z" transform="translate(-157.708 -259.667)" opacity="0.1"/>
    <path id="Path_162" data-name="Path 162" d="M417.31,537.049l1.82,11.289q2.064-.325,4.285-.731c-.569-3.3-1.809-10.834-1.468-12.085l-2.291-1.961Z" transform="translate(-208.137 -255.437)" fill="#65617d"/>
    <path id="Path_163" data-name="Path 163" d="M417.78,536.6l1.82,11.294q2.064-.331,4.285-.731c-.569-3.3-1.809-10.834-1.468-12.085l-2.291-1.966Z" transform="translate(-208.352 -255.23)" opacity="0.1"/>
    <g id="Group_12" data-name="Group 12" transform="translate(157.278 247.214)" opacity="0.05">
      <path id="Path_164" data-name="Path 164" d="M335.7,496.274c-1.289-.108-2.579-.211-3.873-.255-2.893-.108-7.308,0-10.319-2.216l1.051-.184c3.012,2.389,7.584,2.286,10.579,2.4,1.295.043,2.579.146,3.873.255.423.038.856.06,1.295.07a24.3,24.3,0,0,1-2.606-.07Z" transform="translate(-321.51 -484.346)"/>
      <path id="Path_165" data-name="Path 165" d="M400.665,522.171q2.064-.325,4.285-.726l.5-.092s.287-1.56.509-4.22a72.989,72.989,0,0,0-3.57-29.707l-3.337-10.292c.71-.4,1.083-.634,1.083-.634l3.543,10.91a73.181,73.181,0,0,1,3.57,29.707c-.228,2.66-.515,4.22-.515,4.22l-.493.092q-2.216.4-4.285.726a134.939,134.939,0,0,1-22.074,1.9A139.216,139.216,0,0,0,400.665,522.171Z" transform="translate(-348.261 -476.5)"/>
      <path id="Path_166" data-name="Path 166" d="M360.4,559.3v.06h-.7Q360.1,559.333,360.4,559.3Z" transform="translate(-339.012 -514.447)"/>
    </g>
    <ellipse id="Ellipse_19" data-name="Ellipse 19" cx="0.926" cy="1.907" rx="0.926" ry="1.907" transform="translate(211.297 279.906)" fill="#d39999"/>
    <path id="Path_167" data-name="Path 167" d="M311.618,451.927c1.5-11.1,4.133-17.7,5.525-20.287.054.352.2,1.5.26,1.847a53.64,53.64,0,0,1,.119,5.737l-1.387,25.113,1.858,7.855c1.744,6.219-4.718,1.305-4.718,1.305-1.338,2.947-3.792,2.622-3.792,2.622l-.336-4.507a38.927,38.927,0,0,1,1.127-12.638,60.22,60.22,0,0,0,1.343-7.048Z" transform="translate(-158.517 -208.727)" fill="#fdc2cc"/>
    <path id="Path_168" data-name="Path 168" d="M311.618,451.927c1.5-11.1,4.133-17.7,5.525-20.287.054.352.2,1.5.26,1.847a53.64,53.64,0,0,1,.119,5.737l-1.387,25.113,1.858,7.855c1.744,6.219-4.718,1.305-4.718,1.305-1.338,2.947-3.792,2.622-3.792,2.622l-.336-4.507a38.927,38.927,0,0,1,1.127-12.638,60.22,60.22,0,0,0,1.343-7.048Z" transform="translate(-158.517 -208.727)" opacity="0.05"/>
    <path id="Path_169" data-name="Path 169" d="M402.494,484.687c-1.175,1.522-1.82,2.394-1.82,2.394l-4.875,7.178a6.089,6.089,0,0,1-3.51,2.481c-2.221.585-5.634,1.013-8.591-.612a4.994,4.994,0,0,1-2.167-6.316l1.083-2.514s-10.038,6.327-10.91,2.839,11.674-6.983,11.674-6.983,10.363-1.744,12.459-6.658c0,0,.9-1.159,2.167-2.936" transform="translate(-187.216 -227.939)" fill="#fdc2cc"/>
    <path id="Path_170" data-name="Path 170" d="M402.631,509.591S390.762,508.438,387,501.65l-1.723,5.607s12.459,8.6,15.3,7.486Z" transform="translate(-193.458 -240.812)" fill="#65617d"/>
    <path id="Path_171" data-name="Path 171" d="M401.855,509.487s-11.863-1.154-15.628-7.947l-1.717,5.59s12.459,8.6,15.3,7.486Z" transform="translate(-193.105 -240.762)" opacity="0.1"/>
    <path id="Path_172" data-name="Path 172" d="M313.373,510.46s-4.155,1.473-4.973.655l1.869,3.44,3.532-2.709Z" transform="translate(-158.224 -244.85)" fill="#65617d"/>
    <path id="Path_173" data-name="Path 173" d="M313.373,510.46s-4.155,1.473-4.973.655l1.869,3.44,3.532-2.709Z" transform="translate(-158.224 -244.85)" opacity="0.1"/>
    <path id="Path_174" data-name="Path 174" d="M331.976,526.648V519.47l-1.706,7.351Z" transform="translate(-151.367 -238.069)" opacity="0.1"/>
    <path id="Path_175" data-name="Path 175" d="M363.93,265.91a6.375,6.375,0,0,1-4.453,2.346,35.09,35.09,0,0,1-5.173,0,12.975,12.975,0,0,0-7.806,1.966,19.846,19.846,0,0,0-3.581,3.792c-3.348,4.09-8,7.92-13.272,7.492a3.44,3.44,0,0,1-2.465-1.04,3.954,3.954,0,0,1-.628-2.242,51.265,51.265,0,0,1,.32-10.108,21.311,21.311,0,0,1,1.528-6.029,20.585,20.585,0,0,1,3.673-5.244,22.464,22.464,0,0,1,6.408-5.135,11.5,11.5,0,0,1,8.017-1.035c3.158.861,5.617,3.331,8.629,4.6C358.567,256.723,367.7,260.585,363.93,265.91Z" transform="translate(-166.49 -125.65)" opacity="0.1"/>
    <path id="Path_176" data-name="Path 176" d="M363.93,264.7a6.375,6.375,0,0,1-4.453,2.346,35.089,35.089,0,0,1-5.173,0A12.933,12.933,0,0,0,346.5,269a19.846,19.846,0,0,0-3.581,3.792c-3.348,4.09-8,7.92-13.272,7.492a3.418,3.418,0,0,1-2.465-1.04,3.938,3.938,0,0,1-.628-2.243,51.265,51.265,0,0,1,.32-10.108,21.311,21.311,0,0,1,1.528-6.029,20.445,20.445,0,0,1,3.673-5.238,22.388,22.388,0,0,1,6.408-5.141,11.5,11.5,0,0,1,8.017-1.035c3.158.861,5.617,3.331,8.629,4.6C358.567,255.508,367.7,259.359,363.93,264.7Z" transform="translate(-166.49 -125.091)" fill="#865a61"/>
    <path id="Path_177" data-name="Path 177" d="M291.888,473.47l-.043,1.977-.444-1.891Z" transform="translate(-133.553 -216.988)" fill="#fdc2cc"/>
    <path id="Path_178" data-name="Path 178" d="M291.888,473.47l-.043,1.977-.444-1.891Z" transform="translate(-133.553 -216.988)" opacity="0.05"/>
    <g id="Group_13" data-name="Group 13" transform="translate(197.187 176.668)" opacity="0.05">
      <path id="Path_179" data-name="Path 179" d="M398.107,353.323c-4.588,15.1,8.786,16.869,8.786,16.869l10.747,28.8c.872,4.908-10.26,19.2-10.26,19.2-.775,1.831-2.709,3.223-4.821,4.252a7.551,7.551,0,0,0,2.86-3.142s11.127-14.29,10.254-19.2L404.927,371.3s-13.369-1.771-8.786-16.869c1.533-5.043,3.792-7.34,6.078-8.163C400.642,347.538,399.2,349.732,398.107,353.323Z" transform="translate(-395.184 -346.27)"/>
    </g>
    <g id="Group_14" data-name="Group 14" transform="translate(152.439 171.554)" opacity="0.1">
      <path id="Path_180" data-name="Path 180" d="M401,384.61a11.287,11.287,0,0,0,2.167,2.053,12.313,12.313,0,0,0,5.114,2.167v.569a12.275,12.275,0,0,1-4.637-2.053A11.242,11.242,0,0,1,401,384.61Z" transform="translate(-353.101 -358.727)"/>
      <path id="Path_181" data-name="Path 181" d="M322.644,420.461v.19a69.971,69.971,0,0,0,.932,7.676c1.625,9.339-.5,27.882-.807,30.444-.173-.114-.347-.222-.542-.347.081-.618,2.579-20.839.845-30.731a68.643,68.643,0,0,1-.9-7.649v-.19a8.358,8.358,0,0,0-1.457-4.144A8.423,8.423,0,0,1,322.644,420.461Z" transform="translate(-316.305 -372.98)"/>
      <path id="Path_182" data-name="Path 182" d="M328.89,337.572l-5.3-.1a.027.027,0,0,0-.027,0l-6.771,15.309a42.206,42.206,0,0,0-2.708,8.25c-1.972,9.263-.731,13.878.775,16.159-1.7-2-3.445-6.555-1.262-16.793a41.76,41.76,0,0,1,2.681-8.256l6.82-15.309h0l6.246.125v.038C329.3,337.057,329.128,337.263,328.89,337.572Z" transform="translate(-312.577 -336.83)"/>
      <path id="Path_183" data-name="Path 183" d="M416.39,345.87l.092.027Z" transform="translate(-360.154 -340.973)"/>
      <path id="Path_184" data-name="Path 184" d="M374.143,343.8l-5.309-1.6h-.027c-.314.347-7.99,8.857-13.759,15.747-5.157,6.159-14.2,5.677-16.376,5.46-.4-.043-.8-.076-1.192-.1-5.921-.379-8.25-1.083-9.03-2.579,1.111,1.083,3.554,1.625,8.537,1.928.4,0,.8.06,1.192.1,2.167.217,11.219.7,16.376-5.455,5.769-6.9,13.451-15.406,13.765-15.753h0l7.725,2.34a4.827,4.827,0,0,0-1.9-.087Z" transform="translate(-319.852 -338.993)"/>
    </g>
    <path id="Path_185" data-name="Path 185" d="M289.222,776.645s-7.476,2.042-8.922-1.165" transform="translate(-145.346 -366.308)" opacity="0.1"/>
    <path id="Path_186" data-name="Path 186" d="M375.352,773.764S366.684,776,364.68,772.54" transform="translate(-184.017 -364.96)" opacity="0.1"/>
    <path id="Path_187" data-name="Path 187" d="M565.531,752.991c.125-1.083.3-2.167.5-3.25a22.654,22.654,0,0,0-1.083-10.986h0c-.2-.569-.347-.888-.347-.888-3.451-.943-17.053,9.61-22.009,13.586-1.717,0-3.581.076-5.617.211-.888.065-1.777.087-2.665.07h-3.25c-4.6-3.705-18.835-14.848-22.378-13.884,0,0-.146.32-.347.888h0a22.26,22.26,0,0,0-1.11,10.986c.2,1.083.374,2.167.5,3.25.265,2.378,1.262,6.945,4.875,10.027.775,5.634,3.673,13.039,5.9,17.535a12.561,12.561,0,0,0,.758,2.476c-.921,3.553-1.983,8.19-1.679,9.751,0,0-4.81-1.165-5.3,4.626v.179c-1.739.8-3.911,2.622-1.468,6.446a2.508,2.508,0,0,0,1.257,1.024c.433.152.856.152.813-.455l3.006,3.386s5.449.628,5.515-2.535l.32.049c.731.108,1.5.2,2.281.282l.379,1.251s-4.09-.087-2.974,2.432c0,0,1.029.953,1.381.607,0,0-.542,1.652,1.593,1.652,0,0,2.291,1.213,3.185.347s2.746-2.167,2.92-2.709c.049-.146.07-1.43.081-3.207h.352c4.567.108,9.415-.038,13.824-.276h.358c0,1.923.027,3.342.076,3.494.179.542,2.037,1.826,2.925,2.708s3.18-.347,3.18-.347c2.123,0,1.593-1.652,1.593-1.652.358.347,1.387-.607,1.387-.607,1.116-2.519-2.979-2.432-2.979-2.432l.488-1.625,2.259-.19.357-.032c-.217,3.44,5.509,2.779,5.509,2.779l3.012-3.386c-.049.607.374.607.807.455a2.486,2.486,0,0,0,1.219-1.035c3.689-5.769-3.126-6.993-3.126-6.993a3.344,3.344,0,0,0-.645-.1,1.11,1.11,0,0,1,.027-.3h0a11.881,11.881,0,0,0,.043-2.286,5.028,5.028,0,0,0-4.057-2.952c-1.387-.173-1.414-6.544-1.273-10.959a12.6,12.6,0,0,0,.217-2.513,13.261,13.261,0,0,0-.542-4.025c2.708-4.594,4.875-9.409,5.119-10.834C564.268,759.919,565.265,755.369,565.531,752.991Z" transform="translate(-249.214 -349.035)" fill="url(#linear-gradient-5)"/>
    <path id="Path_188" data-name="Path 188" d="M565.485,830.085h0c-.217,3-.8,7.817-.8,7.817s-2.411.292-6.138.628l-2.53.217c-1.939.157-4.117.309-6.419.439-4.252.233-8.922.379-13.326.271-2.2-.049-4.334-.163-6.311-.358-.883-.087-1.739-.19-2.551-.309-5.049-.753-8.667-2.194-8.976-4.724a14.627,14.627,0,0,1-.114-3.25c.471-5.688,5.1-4.539,5.1-4.539-.3-1.571.823-6.452,1.733-9.984.574-2.226,1.083-3.917,1.083-3.917l32.567-2.167h.108a1.593,1.593,0,0,1,1.593,1.674c-.2,3.906-.471,12.849,1.127,13.05a4.91,4.91,0,0,1,3.917,2.9A12.154,12.154,0,0,1,565.485,830.085Z" transform="translate(-254.412 -382.224)" fill="#6c63ff"/>
    <path id="Path_189" data-name="Path 189" d="M533.5,755.2s-12.28,14.783-18.2,10.688c-.141-.1-.276-.2-.406-.3-3.976-3.012-5.022-7.866-5.3-10.33-.119-1.083-.293-2.129-.482-3.185a22.118,22.118,0,0,1,1.083-10.785h0c.2-.542.33-.872.33-.872C514.627,739.283,533.5,755.2,533.5,755.2Z" transform="translate(-250.091 -350.213)" fill="#6c63ff"/>
    <path id="Path_190" data-name="Path 190" d="M526.884,757.356s-3.868,2.708-9.323,7.161a19.7,19.7,0,0,1-2.708,1.863c-3.976-3.012-5.022-7.866-5.3-10.33-.119-1.083-.293-2.129-.482-3.185a22.118,22.118,0,0,1,1.083-10.785h0C517.805,742.611,526.884,757.356,526.884,757.356Z" transform="translate(-250.068 -351)" fill="#6c63ff"/>
    <path id="Path_191" data-name="Path 191" d="M526.884,757.356s-3.868,2.708-9.323,7.161a19.7,19.7,0,0,1-2.708,1.863c-3.976-3.012-5.022-7.866-5.3-10.33-.119-1.083-.293-2.129-.482-3.185a22.118,22.118,0,0,1,1.083-10.785h0C517.805,742.611,526.884,757.356,526.884,757.356Z" transform="translate(-250.068 -351)" fill="#fff" opacity="0.5"/>
    <path id="Path_192" data-name="Path 192" d="M526.279,760.693s-2.064,1.457-4.978,3.824a10.482,10.482,0,0,1-1.43.991A7.974,7.974,0,0,1,517.043,760c-.06-.574-.152-1.138-.255-1.706a11.842,11.842,0,0,1,.6-5.753h0C521.436,752.822,526.279,760.693,526.279,760.693Z" transform="translate(-253.672 -355.794)" opacity="0.1"/>
    <path id="Path_193" data-name="Path 193" d="M569.05,755.2s12.28,14.783,18.2,10.688c.135-.1.276-.2.406-.3,3.976-3.012,5.022-7.866,5.3-10.33.119-1.083.293-2.129.477-3.185a22.052,22.052,0,0,0-1.083-10.785h0c-.195-.542-.336-.872-.336-.872C587.928,739.283,569.05,755.2,569.05,755.2Z" transform="translate(-277.679 -350.213)" fill="#6c63ff"/>
    <path id="Path_194" data-name="Path 194" d="M581.22,757.356s3.873,2.708,9.328,7.161a19.691,19.691,0,0,0,2.681,1.863c3.976-3.012,5.022-7.866,5.3-10.33.119-1.083.293-2.129.477-3.185a22.053,22.053,0,0,0-1.083-10.785h0C590.31,742.611,581.22,757.356,581.22,757.356Z" transform="translate(-283.256 -351)" fill="#6c63ff"/>
    <path id="Path_195" data-name="Path 195" d="M581.22,757.356s3.873,2.708,9.328,7.161a19.691,19.691,0,0,0,2.681,1.863c3.976-3.012,5.022-7.866,5.3-10.33.119-1.083.293-2.129.477-3.185a22.053,22.053,0,0,0-1.083-10.785h0C590.31,742.611,581.22,757.356,581.22,757.356Z" transform="translate(-283.256 -351)" fill="#fff" opacity="0.5"/>
    <path id="Path_196" data-name="Path 196" d="M589.05,760.7S591.1,762.156,594,764.5a9.924,9.924,0,0,0,1.425.986,8,8,0,0,0,2.811-5.477c.06-.542.152-1.132.255-1.7a11.863,11.863,0,0,0-.569-5.72h0C593.866,752.883,589.05,760.7,589.05,760.7Z" transform="translate(-286.845 -355.817)" opacity="0.1"/>
    <path id="Path_197" data-name="Path 197" d="M564.618,810.23a29.417,29.417,0,0,1-4.7,5.991c-4.875,4.334-25.926,2.611-27.291,2.389-.287-.049-.883-.9-1.625-2.281.574-2.226,1.083-3.917,1.083-3.917Z" transform="translate(-260.241 -382.233)" opacity="0.1"/>
    <path id="Path_198" data-name="Path 198" d="M542.26,765.29c-.856.06-1.712.081-2.573.065-4.393-.076-19.193.119-20.834,6.094-1.934,7.042,6.712,25.9,8.071,26.126s22.4,1.934,27.3-2.389,11.257-17.876,10.915-19.106C565.136,776.08,571.2,763.285,542.26,765.29Z" transform="translate(-254.545 -361.54)" fill="#6c63ff"/>
    <path id="Path_199" data-name="Path 199" d="M546.848,786.47a15.54,15.54,0,0,0-15.915,8.992,13,13,0,0,0,.959,13.1c1.69,2.378,4.171,4.149,7.622,2.708C547.184,808.116,546.848,786.47,546.848,786.47Z" transform="translate(-259.599 -371.301)" opacity="0.1"/>
    <path id="Path_200" data-name="Path 200" d="M546.218,785.21A15.54,15.54,0,0,0,530.3,794.2a13,13,0,0,0,.959,13.1c1.69,2.378,4.171,4.149,7.622,2.709C546.554,806.856,546.218,785.21,546.218,785.21Z" transform="translate(-259.31 -370.723)" opacity="0.1"/>
    <path id="Path_201" data-name="Path 201" d="M546.218,785.84a15.54,15.54,0,0,0-15.915,8.992,13,13,0,0,0,.959,13.1c1.69,2.378,4.171,4.149,7.622,2.708C546.554,807.486,546.218,785.84,546.218,785.84Z" transform="translate(-259.31 -371.012)" fill="#6c63ff"/>
    <path id="Path_202" data-name="Path 202" d="M546.218,785.84a15.54,15.54,0,0,0-15.915,8.992,13,13,0,0,0,.959,13.1c1.69,2.378,4.171,4.149,7.622,2.708C546.554,807.486,546.218,785.84,546.218,785.84Z" transform="translate(-259.31 -371.012)" fill="#fff" opacity="0.5"/>
    <path id="Path_203" data-name="Path 203" d="M538.36,803.13s-1.479,1.365-.91,1.706S538.36,803.13,538.36,803.13Z" transform="translate(-263.137 -378.979)" fill="#3f2b3b"/>
    <path id="Path_204" data-name="Path 204" d="M541.808,806.35s-.807,1.782-.233,1.977.915-1.278.915-1.278Z" transform="translate(-264.993 -380.455)" fill="#3f2b3b"/>
    <path id="Path_205" data-name="Path 205" d="M535.293,811.32s-.791,2.1,0,2.1S535.293,811.32,535.293,811.32Z" transform="translate(-262.047 -382.733)" fill="#3f2b3b"/>
    <path id="Path_206" data-name="Path 206" d="M533.78,821.71s1.582,4.041,5.7,3.754" transform="translate(-261.515 -387.495)" fill="none" stroke="#3f2b3b" stroke-miterlimit="10" stroke-width="1"/>
    <path id="Path_207" data-name="Path 207" d="M540.61,823.91a2.851,2.851,0,0,0,3.407.455" transform="translate(-264.645 -388.503)" fill="none" stroke="#3f2b3b" stroke-miterlimit="10" stroke-width="1"/>
    <path id="Path_208" data-name="Path 208" d="M564,786.47a15.54,15.54,0,0,1,15.915,8.992,13,13,0,0,1-.959,13.1c-1.685,2.378-4.171,4.149-7.622,2.708C563.64,808.116,564,786.47,564,786.47Z" transform="translate(-275.362 -371.301)" opacity="0.1"/>
    <path id="Path_209" data-name="Path 209" d="M564.588,785.21A15.54,15.54,0,0,1,580.5,794.2a13,13,0,0,1-.959,13.1c-1.685,2.378-4.171,4.149-7.622,2.709C564.269,806.856,564.588,785.21,564.588,785.21Z" transform="translate(-275.633 -370.723)" opacity="0.1"/>
    <path id="Path_210" data-name="Path 210" d="M564.588,785.84a15.54,15.54,0,0,1,15.915,8.992,13,13,0,0,1-.959,13.1c-1.685,2.378-4.171,4.149-7.622,2.708C564.269,807.486,564.588,785.84,564.588,785.84Z" transform="translate(-275.633 -371.012)" fill="#6c63ff"/>
    <path id="Path_211" data-name="Path 211" d="M564.588,785.84a15.54,15.54,0,0,1,15.915,8.992,13,13,0,0,1-.959,13.1c-1.685,2.378-4.171,4.149-7.622,2.708C564.269,807.486,564.588,785.84,564.588,785.84Z" transform="translate(-275.633 -371.012)" fill="#fff" opacity="0.5"/>
    <path id="Path_212" data-name="Path 212" d="M586.16,803.13s1.479,1.365.91,1.706S586.16,803.13,586.16,803.13Z" transform="translate(-285.52 -378.979)" fill="#3f2b3b"/>
    <path id="Path_213" data-name="Path 213" d="M582.643,806.35s.807,1.782.233,1.977-.915-1.278-.915-1.278Z" transform="translate(-283.595 -380.455)" fill="#3f2b3b"/>
    <path id="Path_214" data-name="Path 214" d="M589.525,811.32s.785,2.1,0,2.1S589.525,811.32,589.525,811.32Z" transform="translate(-286.902 -382.733)" fill="#3f2b3b"/>
    <path id="Path_215" data-name="Path 215" d="M586.8,821.71s-1.582,4.041-5.7,3.754" transform="translate(-283.201 -387.495)" fill="none" stroke="#3f2b3b" stroke-miterlimit="10" stroke-width="1"/>
    <path id="Path_216" data-name="Path 216" d="M581.913,823.91a2.857,2.857,0,0,1-3.413.455" transform="translate(-282.01 -388.503)" fill="none" stroke="#3f2b3b" stroke-miterlimit="10" stroke-width="1"/>
    <path id="Path_217" data-name="Path 217" d="M553.2,842c.287-.054,5.688-2.389,11.257,0Z" transform="translate(-270.415 -396.302)" fill="#3f2b3b"/>
    <path id="Path_218" data-name="Path 218" d="M527.414,855.564c-5.049-.753-8.667-2.194-8.976-4.724a14.627,14.627,0,0,1-.114-3.25,7.291,7.291,0,0,1,1.928-.7c.916-.255,2.048-.081,4.437.6s2.216,3.494,2.708,7.161A3.029,3.029,0,0,1,527.414,855.564Z" transform="translate(-254.412 -398.981)" opacity="0.1"/>
    <path id="Path_219" data-name="Path 219" d="M517.85,847.539s-6.565,1.2-3.012,6.869a2.422,2.422,0,0,0,1.213,1c.417.146.818.146.775-.45l2.9,3.326s5.8.683,5.287-2.985-.341-6.5-2.709-7.161S518.776,847.284,517.85,847.539Z" transform="translate(-252.35 -399.283)" fill="#6c63ff"/>
    <path id="Path_220" data-name="Path 220" d="M524.18,854.67s1.392,3.18,3.326.509" transform="translate(-257.115 -402.6)" fill="none" stroke="#3f2b3b" stroke-miterlimit="10" stroke-width="1"/>
    <path id="Path_221" data-name="Path 221" d="M518.28,857s.72,3.012,3.451.769" transform="translate(-254.411 -403.668)" fill="none" stroke="#3f2b3b" stroke-miterlimit="10" stroke-width="1"/>
    <path id="Path_222" data-name="Path 222" d="M599.54,846.854h0c-.217,3-.8,7.817-.8,7.817s-2.411.293-6.138.628a3.147,3.147,0,0,1,0-.628c.509-3.667.341-6.5,2.709-7.161C597.536,846.908,598.668,846.686,599.54,846.854Z" transform="translate(-288.468 -398.993)" opacity="0.1"/>
    <path id="Path_223" data-name="Path 223" d="M600.434,847.539s6.571,1.2,3.017,6.869a2.443,2.443,0,0,1-1.213,1c-.417.146-.823.146-.78-.45l-2.9,3.326s-5.8.683-5.287-2.985.341-6.5,2.708-7.161S599.524,847.284,600.434,847.539Z" transform="translate(-288.765 -399.283)" fill="#6c63ff"/>
    <path id="Path_224" data-name="Path 224" d="M600.826,854.67s-1.4,3.18-3.326.509" transform="translate(-290.717 -402.6)" fill="none" stroke="#3f2b3b" stroke-miterlimit="10" stroke-width="1"/>
    <path id="Path_225" data-name="Path 225" d="M606.616,857s-.726,3.012-3.456.769" transform="translate(-293.311 -403.668)" fill="none" stroke="#3f2b3b" stroke-miterlimit="10" stroke-width="1"/>
    <path id="Path_226" data-name="Path 226" d="M544.346,853.825c-2.2-.049-4.334-.163-6.311-.358l-1.966-6.62a4.3,4.3,0,0,1-.179-1.208,4.214,4.214,0,0,1,8.424-.027C544.335,848.192,544.357,851.458,544.346,853.825Z" transform="translate(-262.482 -396.593)" opacity="0.1"/>
    <path id="Path_227" data-name="Path 227" d="M534.969,846.728l2.319,7.811s-3.944-.087-2.866,2.389c0,0,.991.937,1.333.6,0,0-.515,1.625,1.533,1.625,0,0,2.21,1.2,3.066.341s2.649-2.134,2.822-2.644c.108-.336.076-6.869.038-11.376a4.2,4.2,0,0,0-4.209-4.171h0a4.209,4.209,0,0,0-4.036,5.428Z" transform="translate(-261.724 -396.473)" fill="#6c63ff"/>
    <path id="Path_228" data-name="Path 228" d="M540.458,869.47s-1.723,1.625-.813,2.584" transform="translate(-264.081 -409.383)" fill="none" stroke="#3f2b3b" stroke-miterlimit="10" stroke-width="1"/>
    <path id="Path_229" data-name="Path 229" d="M538.653,867.56a2.339,2.339,0,0,0-1.593,2" transform="translate(-263.018 -408.507)" fill="none" stroke="#3f2b3b" stroke-miterlimit="10" stroke-width="1"/>
    <path id="Path_230" data-name="Path 230" d="M584.579,845.518a4.286,4.286,0,0,1-.173,1.208l-1.836,6.268c-1.939.157-4.117.309-6.419.439,0-2.34,0-5.455.038-7.941a4.209,4.209,0,1,1,8.418.027Z" transform="translate(-280.933 -396.47)" opacity="0.1"/>
    <path id="Path_231" data-name="Path 231" d="M585,846.728l-2.318,7.811s3.949-.087,2.871,2.389c0,0-.991.937-1.333.6,0,0,.509,1.625-1.538,1.625,0,0-2.21,1.2-3.066.341s-2.644-2.134-2.817-2.644c-.108-.336-.076-6.869-.038-11.376a4.2,4.2,0,0,1,4.209-4.171h0a4.209,4.209,0,0,1,4.03,5.428Z" transform="translate(-281.196 -396.473)" fill="#6c63ff"/>
    <path id="Path_232" data-name="Path 232" d="M586.23,869.47s1.723,1.625.813,2.584" transform="translate(-285.552 -409.383)" fill="none" stroke="#3f2b3b" stroke-miterlimit="10" stroke-width="1"/>
    <path id="Path_233" data-name="Path 233" d="M587.63,867.56a2.339,2.339,0,0,1,1.593,2" transform="translate(-286.194 -408.507)" fill="none" stroke="#3f2b3b" stroke-miterlimit="10" stroke-width="1"/>
    <path id="Path_234" data-name="Path 234" d="M553.814,782.769s-8.023-.255-8.277,5.959,12.535,3.581,12.535,3.581,5.374-.72,4.437-4.5S559.616,783.11,553.814,782.769Z" transform="translate(-266.901 -369.647)" opacity="0.1"/>
    <path id="Path_235" data-name="Path 235" d="M553.814,781.509s-8.023-.255-8.277,5.959,12.535,3.581,12.535,3.581,5.374-.721,4.437-4.5S559.616,781.85,553.814,781.509Z" transform="translate(-266.901 -369.07)" opacity="0.1"/>
    <path id="Path_236" data-name="Path 236" d="M553.814,782.139s-8.023-.255-8.277,5.959,12.535,3.581,12.535,3.581,5.374-.721,4.437-4.5S559.616,782.48,553.814,782.139Z" transform="translate(-266.901 -369.359)" fill="#3f2b3b"/>
    <path id="Path_237" data-name="Path 237" d="M527.78,839.92s2.708.964,3.25,2.811" transform="translate(-258.765 -395.84)" opacity="0.1"/>
    <path id="Path_238" data-name="Path 238" d="M596.762,837.4s-1.923.807-1.788,4.177" transform="translate(-289.557 -394.685)" opacity="0.1"/>
    <ellipse id="Ellipse_20" data-name="Ellipse 20" cx="1.256" cy="2.082" rx="1.256" ry="2.082" transform="translate(268.029 456.983) rotate(-29.887)" fill="#6c63ff"/>
    <ellipse id="Ellipse_21" data-name="Ellipse 21" cx="2.075" cy="1.251" rx="2.075" ry="1.251" transform="translate(306.155 457.472) rotate(-60)" fill="#6c63ff"/>
    <ellipse id="Ellipse_22" data-name="Ellipse 22" cx="1.256" cy="2.082" rx="1.256" ry="2.082" transform="translate(268.029 456.983) rotate(-29.887)" fill="#fff" opacity="0.5"/>
    <ellipse id="Ellipse_23" data-name="Ellipse 23" cx="2.075" cy="1.251" rx="2.075" ry="1.251" transform="translate(306.155 457.472) rotate(-60)" fill="#fff" opacity="0.5"/>
    <ellipse id="Ellipse_24" data-name="Ellipse 24" cx="14.588" cy="2.465" rx="14.588" ry="2.465" transform="translate(89.738 385.43)" fill="#6c63ff" opacity="0.1"/>
    <ellipse id="Ellipse_25" data-name="Ellipse 25" cx="14.588" cy="2.465" rx="14.588" ry="2.465" transform="translate(32.269 420.386)" fill="#6c63ff" opacity="0.1"/>
    <ellipse id="Ellipse_26" data-name="Ellipse 26" cx="21.782" cy="3.684" rx="21.782" ry="3.684" transform="translate(9.886 387.894)" fill="#6c63ff"/>
    <path id="Path_239" data-name="Path 239" d="M71.183,723.388a6.3,6.3,0,0,1-2.08-3.131,2.792,2.792,0,0,1,1.452-3.191c1.333-.509,2.757.412,3.835,1.343s2.318,2,3.732,1.8a5.682,5.682,0,0,1-1.755-5.32,2.167,2.167,0,0,1,.488-1.083c.737-.791,2.08-.45,2.969.173,2.811,1.983,3.6,5.807,3.613,9.252a17.064,17.064,0,0,0,.054-3.792,3.9,3.9,0,0,1,1.43-3.369,4.333,4.333,0,0,1,2.167-.542,4.531,4.531,0,0,1,3.543,1.008c1.083,1.148.8,3.082-.141,4.334a14.162,14.162,0,0,1-3.662,2.936,8.082,8.082,0,0,0-2.622,2.5,2.555,2.555,0,0,0-.2.444H76.1a21.908,21.908,0,0,1-4.913-3.364Z" transform="translate(-48.524 -337.834)" fill="#6c63ff"/>
    <ellipse id="Ellipse_27" data-name="Ellipse 27" cx="14.588" cy="2.465" rx="14.588" ry="2.465" transform="translate(543.269 406.047)" fill="#6c63ff" opacity="0.1"/>
    <path id="Path_240" data-name="Path 240" d="M1042.91,749.307s8.321-.255,10.834-2.042,12.795-3.917,13.418-1.051,12.508,14.241,3.109,14.317-21.825-1.463-24.328-2.99S1042.91,749.307,1042.91,749.307Z" transform="translate(-494.847 -352.252)" fill="#a8a8a8"/>
    <path id="Path_241" data-name="Path 241" d="M1070.434,763.338c-9.393.076-21.825-1.463-24.328-2.99-1.907-1.159-2.665-5.325-2.92-7.248h-.276s.542,6.712,3.028,8.234,14.935,3.066,24.328,2.99c2.709,0,3.651-.986,3.6-2.416C1073.489,762.8,1072.454,763.338,1070.434,763.338Z" transform="translate(-494.847 -356.051)" opacity="0.2"/>
  </g>
</svg>
